<?xml version="1.0" encoding="utf-8"?>
<!-- Generator: Adobe Illustrator 21.1.0, SVG Export Plug-In . SVG Version: 6.00 Build 0)  -->
<svg version="1.1" id="Capa_1" xmlns="http://www.w3.org/2000/svg" xmlns:xlink="http://www.w3.org/1999/xlink" x="0px" y="0px"
	 width="14.2px" height="16px" viewBox="0 0 14.2 16" style="enable-background:new 0 0 14.2 16;" xml:space="preserve">
<style type="text/css">
	.st0{fill:#9EA3A8;}
</style>
<g>
	<path class="st0" d="M3.2,1.3V0.6C3.2,0.3,2.9,0,2.6,0C2.3,0,2,0.3,2,0.6v0.7C0.9,1.5,0,2.6,0,3.8c0,1.2,0.9,2.3,2,2.5v9
		C2,15.7,2.3,16,2.6,16c0.3,0,0.6-0.3,0.6-0.6v-9c1.2-0.3,2-1.3,2-2.5C5.2,2.6,4.4,1.5,3.2,1.3z M2.6,5.3c-0.8,0-1.4-0.6-1.4-1.4
		c0-0.8,0.6-1.4,1.4-1.4S4,3,4,3.8C4,4.6,3.4,5.3,2.6,5.3z"/>
	<path class="st0" d="M7.7,7.9V0.6C7.7,0.3,7.4,0,7.1,0S6.5,0.3,6.5,0.6v7.3c-1.2,0.3-2,1.3-2,2.5c0,1.2,0.9,2.3,2,2.5v2.4
		c0,0.3,0.3,0.6,0.6,0.6s0.6-0.3,0.6-0.6V13c1.2-0.3,2-1.3,2-2.5C9.7,9.2,8.8,8.2,7.7,7.9z M7.1,11.9c-0.8,0-1.4-0.6-1.4-1.4
		C5.6,9.7,6.3,9,7.1,9c0.8,0,1.4,0.6,1.4,1.4C8.5,11.2,7.9,11.9,7.1,11.9z"/>
	<path class="st0" d="M12.1,3.9V0.6c0-0.3-0.3-0.6-0.6-0.6C11.2,0,11,0.3,11,0.6v3.3c-1.2,0.3-2,1.3-2,2.5s0.9,2.3,2,2.5v6.5
		c0,0.3,0.3,0.6,0.6,0.6c0.3,0,0.6-0.3,0.6-0.6V8.9c1.2-0.3,2-1.3,2-2.5S13.3,4.1,12.1,3.9z M11.5,7.8c-0.8,0-1.4-0.6-1.4-1.4
		S10.8,5,11.5,5C12.3,5,13,5.6,13,6.4S12.3,7.8,11.5,7.8z"/>
</g>
</svg>
