<?xml version="1.0" encoding="utf-8"?>
<!-- Generator: Adobe Illustrator 21.1.0, SVG Export Plug-In . SVG Version: 6.00 Build 0)  -->
<svg version="1.1" id="Слой_1" xmlns="http://www.w3.org/2000/svg" xmlns:xlink="http://www.w3.org/1999/xlink" x="0px" y="0px"
	 width="1920px" height="14.9px" viewBox="0 0 1920 14.9" style="enable-background:new 0 0 1920 14.9;" xml:space="preserve">
<style type="text/css">
	.st0{fill:#FFFFFF;}
</style>
<path class="st0" d="M1972-94.9l23,102c0,0-340.1,9-408,7l-4.1-0.1c-52.4-1.6-229.7-6.9-293.9-6.9c-66,0-340,7-340,7
	c-157,0-410-7-509-7s-141,7-229,7s-212-7-212-7v-112.2c0,0,156,0.5,212,0s285,10.2,477,10.2c192,0,253-10.2,422-10.2
	c25.6,0,93.6,2.9,158.3,5.5l132.7,4.6c54.8-2.5,267.9-7.1,307-10.2C1815-105.1,1972-94.9,1972-94.9z"/>
</svg>
