<?xml version="1.0" encoding="utf-8"?>
<!-- Generator: Adobe Illustrator 21.1.0, SVG Export Plug-In . SVG Version: 6.00 Build 0)  -->
<svg version="1.1" id="Слой_1" xmlns="http://www.w3.org/2000/svg" xmlns:xlink="http://www.w3.org/1999/xlink" x="0px" y="0px"
	 width="1919px" height="20px" viewBox="0 0 1919 20" style="enable-background:new 0 0 1919 20;" xml:space="preserve">
<style type="text/css">
	.st0{fill:#FFFFFF;}
</style>
<path class="st0" d="M1919-95.8v109c0,0-106.6,8-174.5,6c-46.5-1.4-389.5-13-455.5-13s-340,7-340,7c-157,0-297-1.7-422-8.2
	L142.5,6.2C55.5,1.2-1,6.2-1,6.2V-106c0,0,125-9.5,181-10s316,20.2,508,20.2c192,0,253-10.2,422-10.2c25.6,0,159.7,2.9,286.7,5.5
	l240.3,4.6c54.8-2.5,101.9-5.6,141-8.6C1870.9-111.7,1919-95.8,1919-95.8z"/>
</svg>
