<?xml version="1.0" encoding="utf-8"?>
<!-- Generator: Adobe Illustrator 21.1.0, SVG Export Plug-In . SVG Version: 6.00 Build 0)  -->
<svg version="1.1" id="Слой_1" xmlns="http://www.w3.org/2000/svg" xmlns:xlink="http://www.w3.org/1999/xlink" x="0px" y="0px"
	 width="1920px" height="26px" viewBox="0 0 1920 26" style="enable-background:new 0 0 1920 26;" xml:space="preserve">
<style type="text/css">
	.st0{fill:#FFFFFF;}
</style>
<path class="st0" d="M0,11c0,0,125-9.5,181-10c56-0.5,316,20.2,508,20.2c192,0,253-10.2,422-10.2c48.3,0,484,10.2,527,10.2
	c54.8-2.5,101.9-5.6,141-8.6c92.9-7.3,141,8.6,141,8.6v109c0,0-106.6,8-174.5,6c-46.5-1.4-387.5-5-453.5-5s-110,0-110,0
	c-127,0.8-591,0-591,0s-211-6.3-249-8c-38-1.7-111.5,5-198.5,0c-87-5-143.5,0-143.5,0V11z"/>
</svg>
