<?xml version="1.0" encoding="utf-8"?>
<!-- Generator: Adobe Illustrator 21.1.0, SVG Export Plug-In . SVG Version: 6.00 Build 0)  -->
<svg version="1.1" id="Слой_1" xmlns="http://www.w3.org/2000/svg" xmlns:xlink="http://www.w3.org/1999/xlink" x="0px" y="0px"
	 width="1920px" height="18.6px" viewBox="0 0 1920 18.6" style="enable-background:new 0 0 1920 18.6;" xml:space="preserve">
<style type="text/css">
	.st0{fill:#FFFFFF;}
</style>
<path class="st0" d="M1972,14.2l23,102c0,0-230.1,20.8-298,18.8c-46.5-1.4-342-18.8-408-18.8s-340,7-340,7c-157,0-410-7-509-7
	s-187,7-239,0s-202,0-202,0V4c0,0,156,0.5,212,0s285,10.2,477,10.2C880,14.2,876,4,1045,4c25.6,0,111.8,2.9,193.7,5.5l162.3,4.6
	c54.8-2.5,300.9-7.1,340-10.2C1894-8,1972,14.2,1972,14.2z"/>
</svg>
