<?xml version="1.0" encoding="utf-8"?>
<!-- Generator: Adobe Illustrator 21.1.0, SVG Export Plug-In . SVG Version: 6.00 Build 0)  -->
<svg version="1.1" id="Слой_1" xmlns="http://www.w3.org/2000/svg" xmlns:xlink="http://www.w3.org/1999/xlink" x="0px" y="0px"
	 width="1920px" height="10px" viewBox="0 0 1920 10" style="enable-background:new 0 0 1920 10;" xml:space="preserve">
<style type="text/css">
	.st0{fill:#FFFFFF;}
</style>
<path class="st0" d="M0,2c0,0,119,4,175,3.5S312.5,2,369,2c36.4,0,681.6,0,1127.5,0c48.3,0,98.5,4,141.5,4c185-8.5,282-4,282-4v113
	c0,0-106.6,8-174.5,6c-46.5-1.4-387.5-5-453.5-5s-110,0-110,0c-127,0.8-591,0-591,0s-211-6.3-249-8s-111.5,5-198.5,0S0,108,0,108V2z
	"/>
</svg>
