<?xml version="1.0" encoding="utf-8"?>
<!-- Generator: Adobe Illustrator 21.1.0, SVG Export Plug-In . SVG Version: 6.00 Build 0)  -->
<svg version="1.1" id="Слой_1" xmlns="http://www.w3.org/2000/svg" xmlns:xlink="http://www.w3.org/1999/xlink" x="0px" y="0px"
	 width="1920px" height="19.1px" viewBox="0 0 1920 19.1" style="enable-background:new 0 0 1920 19.1;" xml:space="preserve">
<style type="text/css">
	.st0{fill:#FFFFFF;}
</style>
<path class="st0" d="M1972,13.7l23,102c0,0-230.1,20.8-298,18.8c-46.5-1.4-342-18.8-408-18.8s-340,7-340,7c-157,0-410-7-509-7
	s-187,7-239,0s-202,0-202,0V3.5c0,0,156,0.5,212,0s285,10.2,477,10.2c192,0,188-10.2,357-10.2c25.6,0,111.8,2.9,193.7,5.5l162.3,4.6
	c54.8-2.5,300.9-7.1,340-10.2C1894-8.4,1972,13.7,1972,13.7z"/>
</svg>
