<?xml version="1.0" encoding="utf-8"?>
<!-- Generator: Adobe Illustrator 21.1.0, SVG Export Plug-In . SVG Version: 6.00 Build 0)  -->
<svg version="1.1" id="Слой_1" xmlns="http://www.w3.org/2000/svg" xmlns:xlink="http://www.w3.org/1999/xlink" x="0px" y="0px"
	 width="1920px" height="13.6px" viewBox="0 0 1920 13.6" style="enable-background:new 0 0 1920 13.6;" xml:space="preserve">
<style type="text/css">
	.st0{fill:#FFFFFF;}
</style>
<path class="st0" d="M1972,10.2l23,102c0,0-182.6,15-250.5,13c-46.5-1.4-389.5-13-455.5-13s-340,7-340,7c-157,0-297-1.7-422-8.2
	l-384.5,1.2c-87-5-143.5,0-143.5,0V0c0,0,156,0.5,212,0s285,10.2,477,10.2C880,10.2,941,0,1110,0c25.6,0,93.6,2.9,158.3,5.5
	l132.7,4.6c54.8-2.5,267.9-7.1,307-10.2C1815,0,1972,10.2,1972,10.2z"/>
</svg>
