<?xml version="1.0" encoding="utf-8"?>
<!-- Generator: Adobe Illustrator 21.1.0, SVG Export Plug-In . SVG Version: 6.00 Build 0)  -->
<svg version="1.1" id="Слой_1" xmlns="http://www.w3.org/2000/svg" xmlns:xlink="http://www.w3.org/1999/xlink" x="0px" y="0px"
	 width="2018px" height="1352px" viewBox="0 0 2018 1352" style="enable-background:new 0 0 2018 1352;" xml:space="preserve">
<style type="text/css">
	.st0{fill:#FFFFFF;}
</style>
<g>
	<path class="st0" d="M230,1064.7c-2-1.6-6.9-4.5-6-7.3c0.8-2.5,2.4-4.9,3.2-7.5c0.2-0.5-0.4-1-0.8-0.8c-1.5,0.5-3,1.1-4.5,1.6
		c-1.1,0.4-3.4,1.8-4.5,1.6c-2.4-0.2-5.4-5.2-7-6.9c-0.4-0.4-1-0.1-1.1,0.4c-0.3,3.3-0.4,6.7,0,10c-2.7-1.2-5.4-1.7-8.4-1.5
		c-0.6,0-0.9,0.7-0.5,1.2c1.2,1.2,2.3,2.4,3.6,3.5c0.8,0.8,3.4,2.2,3.8,3.2c0.8,2.1-2.6,6.5-3.6,8.4c-0.3,0.6,0.3,1.3,1,0.9
		c2.9-1.6,5.7-3.3,8.4-5.1c0.7,2.1,1.5,4.2,2.4,6.3c0.3,0.6,1.1,0.3,1.3-0.2c0.9-2.7,1.7-5.5,2.6-8.2c3.2,1,6.4,1.5,9.7,1.4
		C230.4,1065.9,230.5,1065.1,230,1064.7z M224.4,1053.4c-0.6-0.5-1.2-1-1.9-1.5c1-0.3,1.9-0.7,2.9-1
		C225.1,1051.7,224.8,1052.6,224.4,1053.4z M220.5,1052.6c0.4-0.2,0.9-0.3,1.3-0.5c0.7,0.7,1.5,1.3,2.2,1.9
		c-0.2,0.4-0.4,0.8-0.5,1.2c-1.1-0.8-2.2-1.6-3.1-2.5C220.5,1052.7,220.5,1052.6,220.5,1052.6z M219.7,1053c1,1.1,2.2,2.2,3.6,2.9
		c-0.2,0.4-0.4,0.9-0.7,1.3c-0.6-0.5-1.3-0.9-1.9-1.4c-1-0.7-1.9-1.4-2.9-2.1C218.4,1053.5,219.1,1053.2,219.7,1053z M206.5,1069.4
		c0.3-0.6,0.7-1.3,1-1.9c0.3,0.2,0.6,0.5,0.9,0.7h0.1C207.9,1068.6,207.2,1069,206.5,1069.4z M208.7,1068c0-0.1,0.1-0.2,0-0.3
		c-0.3-0.3-0.6-0.6-0.9-0.8c0.2-0.4,0.4-0.7,0.6-1.1c0.3,0.3,0.7,0.6,1,0.9c0.2,0.2,0.4,0.4,0.7,0.5
		C209.6,1067.5,209.2,1067.8,208.7,1068z M210.5,1066.9c-0.3-0.2-0.6-0.5-0.9-0.7c-0.3-0.3-0.7-0.6-1-0.8c0.2-0.4,0.5-0.8,0.7-1.3
		c0.8,0.7,1.7,1.4,2.6,1.9C211.5,1066.4,211,1066.6,210.5,1066.9z M213.6,1065c-0.4,0.3-0.8,0.5-1.2,0.8c-0.9-0.7-1.9-1.4-2.9-2.1
		c0.1-0.2,0.3-0.5,0.4-0.7c0.1-0.2,0.1-0.6-0.1-0.8c-2.5-2-4.9-4.1-7.2-6.3c0.1,0,0.2,0,0.4,0c3.5,3.1,7.1,6.2,10.8,9.1
		C213.7,1064.9,213.6,1064.9,213.6,1065z M216.5,1070.5c-0.7-1.7-1.3-3.3-1.8-5c0.9,0.7,1.8,1.4,2.8,2.1
		C217.1,1068.6,216.8,1069.6,216.5,1070.5z M217.6,1067c-4.4-3.9-9.1-7.6-13.7-11.2c0.6,0.1,1.1,0.2,1.7,0.3c0,0,0,0.1,0.1,0.1
		c4.1,3.2,8.2,6.5,12.3,9.7C217.8,1066.3,217.7,1066.7,217.6,1067z M218.2,1065.3c-3.6-3.2-7.4-6.1-11.3-8.9
		c0.8,0.2,1.6,0.5,2.4,0.9c0.4,0.2,0.9-0.1,1-0.4c2.8,2.3,5.6,4.7,8.5,6.9C218.5,1064.3,218.3,1064.8,218.2,1065.3z M219.6,1063
		c-0.2-0.1-0.4,0-0.6,0.1c-2.9-2.3-5.9-4.6-8.8-7c0-0.1,0-0.1,0-0.2c0-0.6,0-1.1,0-1.7c2.1,1.9,4.2,3.6,6.4,5.3
		c1.8,1.4,3.7,3,5.7,4.2C221.4,1063.6,220.5,1063.3,219.6,1063z M223.8,1064.1c0-0.1,0-0.3-0.1-0.4c-1.9-1.9-4.3-3.4-6.5-5
		c-2.4-1.8-4.7-3.6-7-5.3c0-0.8,0-1.6,0-2.4c5.1,4.3,10,8.9,15.1,13.3C224.8,1064.3,224.3,1064.2,223.8,1064.1z M226.8,1064.5
		c-5.2-5.1-10.9-9.7-16.5-14.3c0-0.9,0.1-1.9,0.2-2.8c1.1,1.3,2.2,2.5,3.3,3.8c0.7,0.8,1.6,2.4,2.7,2.6c0.1,0,0.2,0,0.3,0
		c1.1,0.9,2.2,1.8,3.3,2.6c0.6,0.5,1.3,1.1,1.9,1.6c-0.1,0.1-0.1,0.2-0.2,0.3c-0.2,0.3-0.1,0.6,0.1,0.8c1.7,2,3.6,3.7,5.6,5.4
		C227.3,1064.5,227.1,1064.5,226.8,1064.5z"/>
</g>
<g>
	<path class="st0" d="M1680,314.7c-2.1-1.6-6.9-4.5-6-7.3c0.8-2.5,2.4-4.9,3.2-7.5c0.2-0.5-0.4-1-0.8-0.8c-1.5,0.5-3,1.1-4.5,1.6
		c-1.1,0.4-3.4,1.8-4.5,1.6c-2.4-0.2-5.4-5.2-7-6.9c-0.4-0.4-1-0.1-1.1,0.4c-0.3,3.3-0.4,6.7,0,10c-2.7-1.2-5.4-1.7-8.4-1.5
		c-0.6,0-0.9,0.7-0.5,1.2c1.2,1.2,2.3,2.4,3.6,3.5c0.8,0.8,3.4,2.2,3.8,3.2c0.8,2.1-2.6,6.5-3.6,8.4c-0.3,0.6,0.3,1.3,1,0.9
		c2.9-1.6,5.7-3.3,8.4-5.1c0.7,2.1,1.5,4.2,2.4,6.3c0.3,0.6,1.1,0.3,1.3-0.2c0.9-2.7,1.8-5.5,2.6-8.2c3.2,1,6.4,1.5,9.7,1.4
		C1680.4,315.9,1680.5,315.1,1680,314.7z M1674.4,303.4c-0.6-0.5-1.2-1-1.9-1.5c1-0.3,1.9-0.7,2.9-1
		C1675.1,301.7,1674.7,302.6,1674.4,303.4z M1670.5,302.6c0.4-0.2,0.9-0.3,1.3-0.5c0.7,0.7,1.5,1.3,2.2,1.9
		c-0.2,0.4-0.3,0.8-0.5,1.2c-1.1-0.8-2.2-1.6-3.1-2.5C1670.5,302.7,1670.5,302.6,1670.5,302.6z M1669.7,303c1,1.1,2.2,2.2,3.6,2.9
		c-0.2,0.4-0.4,0.9-0.7,1.3c-0.6-0.5-1.3-0.9-1.9-1.4c-1-0.7-1.9-1.4-2.9-2.1C1668.4,303.5,1669.1,303.2,1669.7,303z M1656.5,319.4
		c0.3-0.6,0.7-1.3,1-1.9c0.3,0.2,0.6,0.5,0.9,0.7h0.1C1657.9,318.6,1657.2,319,1656.5,319.4z M1658.7,318c0.1-0.1,0.1-0.2,0-0.3
		c-0.3-0.3-0.6-0.6-0.9-0.8c0.2-0.4,0.4-0.7,0.6-1.1c0.3,0.3,0.7,0.6,1,0.9c0.2,0.2,0.4,0.4,0.7,0.5
		C1659.6,317.5,1659.2,317.8,1658.7,318z M1660.5,316.9c-0.3-0.2-0.7-0.5-0.9-0.7c-0.3-0.3-0.7-0.6-1-0.8c0.2-0.4,0.5-0.8,0.7-1.3
		c0.8,0.7,1.7,1.4,2.6,1.9C1661.5,316.4,1661,316.6,1660.5,316.9z M1663.6,315c-0.4,0.3-0.8,0.5-1.2,0.8c-0.9-0.7-1.9-1.4-2.9-2.1
		c0.1-0.2,0.3-0.5,0.4-0.7s0.1-0.6-0.1-0.8c-2.5-2-4.9-4.1-7.2-6.3c0.1,0,0.2,0,0.4,0c3.5,3.1,7.1,6.2,10.8,9.1
		C1663.7,314.9,1663.6,314.9,1663.6,315z M1666.5,320.5c-0.7-1.7-1.3-3.3-1.8-5c0.9,0.7,1.8,1.4,2.8,2.1
		C1667.1,318.6,1666.8,319.6,1666.5,320.5z M1667.6,317c-4.4-3.9-9-7.6-13.7-11.2c0.6,0.1,1.1,0.2,1.7,0.3c0,0,0,0.1,0.1,0.1
		c4.1,3.2,8.2,6.5,12.3,9.7C1667.8,316.3,1667.7,316.7,1667.6,317z M1668.2,315.3c-3.6-3.2-7.4-6.1-11.3-8.9
		c0.8,0.2,1.6,0.5,2.4,0.9c0.4,0.2,0.9-0.1,1-0.4c2.8,2.3,5.6,4.7,8.5,6.9C1668.5,314.3,1668.3,314.8,1668.2,315.3z M1669.6,313
		c-0.2-0.1-0.4,0-0.6,0.1c-2.9-2.3-5.9-4.6-8.8-7c0-0.1,0-0.1,0-0.2c0-0.6,0-1.1,0-1.7c2.1,1.9,4.2,3.6,6.4,5.3
		c1.8,1.4,3.7,3,5.7,4.2C1671.4,313.6,1670.5,313.3,1669.6,313z M1673.8,314.1c0-0.1,0-0.3-0.1-0.4c-1.9-1.9-4.3-3.4-6.5-5
		c-2.3-1.8-4.7-3.6-7-5.3c0-0.8,0-1.6,0-2.4c5.1,4.3,10,8.9,15.1,13.3C1674.8,314.3,1674.3,314.2,1673.8,314.1z M1676.8,314.5
		c-5.2-5.1-10.9-9.7-16.5-14.3c0-0.9,0.1-1.9,0.2-2.8c1.1,1.3,2.2,2.5,3.3,3.8c0.7,0.8,1.7,2.4,2.7,2.6c0.1,0,0.2,0,0.3,0
		c1.1,0.9,2.2,1.8,3.3,2.6c0.6,0.5,1.3,1.1,1.9,1.6c-0.1,0.1-0.1,0.2-0.2,0.3c-0.2,0.3-0.1,0.6,0.1,0.8c1.7,2,3.6,3.7,5.6,5.4
		C1677.3,314.5,1677.1,314.5,1676.8,314.5z"/>
</g>
<g>
	<path class="st0" d="M1806.2,1189.5c-2.1-1.6-6.9-4.5-6-7.3c0.8-2.5,2.4-4.9,3.2-7.5c0.2-0.5-0.4-1-0.8-0.8c-1.5,0.5-3,1.1-4.5,1.6
		c-1.1,0.4-3.4,1.8-4.5,1.6c-2.4-0.2-5.4-5.2-7-6.9c-0.4-0.4-1-0.1-1.1,0.4c-0.3,3.3-0.4,6.7,0,10c-2.7-1.2-5.4-1.7-8.4-1.5
		c-0.6,0-0.9,0.7-0.5,1.2c1.2,1.2,2.3,2.4,3.6,3.5c0.8,0.8,3.4,2.2,3.8,3.2c0.8,2.1-2.6,6.5-3.6,8.4c-0.3,0.6,0.3,1.3,1,1
		c2.9-1.6,5.7-3.3,8.4-5.1c0.7,2.1,1.5,4.2,2.4,6.3c0.3,0.6,1.1,0.3,1.3-0.2c0.9-2.7,1.8-5.4,2.6-8.2c3.2,1,6.4,1.5,9.7,1.4
		C1806.6,1190.7,1806.7,1189.9,1806.2,1189.5z M1800.6,1178.2c-0.6-0.5-1.2-1-1.9-1.5c1-0.3,1.9-0.7,2.9-1
		C1801.3,1176.5,1800.9,1177.4,1800.6,1178.2z M1796.7,1177.4c0.4-0.2,0.9-0.3,1.3-0.5c0.7,0.7,1.5,1.3,2.2,1.9
		c-0.2,0.4-0.3,0.8-0.5,1.2C1798.6,1179.2,1797.5,1178.4,1796.7,1177.4C1796.7,1177.5,1796.7,1177.4,1796.7,1177.4z M1795.9,1177.8
		c1,1.1,2.2,2.2,3.6,2.9c-0.2,0.4-0.4,0.9-0.7,1.3c-0.6-0.5-1.3-0.9-1.9-1.4c-1-0.7-1.9-1.4-2.9-2.1
		C1794.6,1178.3,1795.3,1178,1795.9,1177.8z M1782.7,1194.2c0.3-0.6,0.7-1.3,1-1.9c0.3,0.2,0.6,0.5,0.9,0.7h0.1
		C1784.1,1193.4,1783.4,1193.8,1782.7,1194.2z M1784.9,1192.8c0.1-0.1,0.1-0.2,0-0.3c-0.3-0.3-0.6-0.6-0.9-0.8
		c0.2-0.4,0.4-0.7,0.6-1.1c0.3,0.3,0.7,0.6,1,0.9c0.2,0.2,0.4,0.4,0.7,0.5C1785.8,1192.3,1785.4,1192.6,1784.9,1192.8z
		 M1786.7,1191.7c-0.3-0.2-0.7-0.5-0.9-0.7c-0.3-0.3-0.7-0.6-1-0.8c0.2-0.4,0.5-0.8,0.7-1.3c0.8,0.7,1.7,1.4,2.6,1.9
		C1787.7,1191.2,1787.2,1191.4,1786.7,1191.7z M1789.8,1189.8c-0.4,0.3-0.8,0.5-1.2,0.8c-0.9-0.7-1.9-1.4-2.9-2.1
		c0.1-0.2,0.3-0.5,0.4-0.7s0.1-0.6-0.1-0.8c-2.5-2-4.9-4.1-7.2-6.3c0.1,0,0.2,0,0.4,0c3.5,3.1,7.1,6.2,10.8,9.1
		C1789.9,1189.7,1789.8,1189.7,1789.8,1189.8z M1792.7,1195.3c-0.7-1.7-1.3-3.3-1.8-5c0.9,0.7,1.8,1.4,2.8,2.1
		C1793.3,1193.4,1793,1194.4,1792.7,1195.3z M1793.8,1191.8c-4.4-3.9-9-7.6-13.7-11.2c0.6,0.1,1.1,0.2,1.7,0.3c0,0,0,0.1,0.1,0.1
		c4.1,3.2,8.2,6.5,12.3,9.7C1794,1191.1,1793.9,1191.5,1793.8,1191.8z M1794.4,1190.1c-3.6-3.2-7.4-6.1-11.3-8.9
		c0.8,0.2,1.6,0.5,2.4,0.9c0.4,0.2,0.9-0.1,1-0.4c2.8,2.3,5.6,4.7,8.5,6.9C1794.7,1189.1,1794.5,1189.6,1794.4,1190.1z
		 M1795.8,1187.8c-0.2-0.1-0.4,0-0.6,0.1c-2.9-2.3-5.9-4.6-8.8-7c0-0.1,0-0.1,0-0.2c0-0.6,0-1.1,0-1.7c2.1,1.9,4.2,3.6,6.4,5.3
		c1.8,1.4,3.7,3,5.7,4.2C1797.6,1188.4,1796.7,1188.1,1795.8,1187.8z M1800,1188.9c0-0.1,0-0.3-0.1-0.4c-1.9-1.9-4.3-3.4-6.5-5
		c-2.3-1.8-4.7-3.6-7-5.3c0-0.8,0-1.6,0-2.4c5.1,4.3,10,8.9,15.1,13.3C1801,1189.1,1800.5,1189,1800,1188.9z M1803,1189.3
		c-5.2-5.1-10.9-9.7-16.5-14.3c0-0.9,0.1-1.9,0.2-2.8c1.1,1.3,2.2,2.5,3.3,3.8c0.7,0.8,1.7,2.4,2.7,2.6c0.1,0,0.2,0,0.3,0
		c1.1,0.9,2.2,1.8,3.3,2.6c0.6,0.5,1.3,1.1,1.9,1.6c-0.1,0.1-0.1,0.2-0.2,0.3c-0.2,0.3-0.1,0.6,0.1,0.8c1.7,2,3.6,3.7,5.6,5.4
		C1803.5,1189.3,1803.3,1189.3,1803,1189.3z"/>
</g>
<g>
	<path class="st0" d="M1301.9,452.3c-2.1-1.6-6.9-4.5-6-7.3c0.8-2.5,2.4-4.9,3.2-7.5c0.2-0.5-0.4-1-0.8-0.8c-1.5,0.5-3,1.1-4.5,1.6
		c-1.1,0.4-3.4,1.8-4.5,1.6c-2.4-0.2-5.4-5.2-7-6.9c-0.4-0.4-1-0.1-1.1,0.4c-0.3,3.3-0.4,6.7,0,10c-2.7-1.2-5.4-1.7-8.4-1.5
		c-0.6,0-0.9,0.7-0.5,1.2c1.2,1.2,2.3,2.4,3.6,3.5c0.8,0.8,3.4,2.2,3.8,3.2c0.8,2.1-2.6,6.5-3.6,8.4c-0.3,0.6,0.3,1.3,1,0.9
		c2.9-1.6,5.7-3.3,8.4-5.1c0.7,2.1,1.5,4.2,2.4,6.3c0.3,0.6,1.1,0.3,1.3-0.2c0.9-2.7,1.8-5.5,2.6-8.2c3.2,1,6.4,1.5,9.7,1.4
		C1302.3,453.5,1302.4,452.7,1301.9,452.3z M1296.3,441c-0.6-0.5-1.2-1-1.9-1.5c1-0.3,1.9-0.7,2.9-1
		C1297,439.3,1296.6,440.2,1296.3,441z M1292.4,440.2c0.4-0.2,0.9-0.3,1.3-0.5c0.7,0.7,1.5,1.3,2.2,1.9c-0.2,0.4-0.3,0.8-0.5,1.2
		c-1.1-0.8-2.2-1.6-3.1-2.5C1292.4,440.3,1292.4,440.2,1292.4,440.2z M1291.6,440.6c1,1.1,2.2,2.2,3.6,2.9c-0.2,0.4-0.4,0.9-0.7,1.3
		c-0.6-0.5-1.3-0.9-1.9-1.4c-1-0.7-1.9-1.4-2.9-2.1C1290.3,441.1,1291,440.8,1291.6,440.6z M1278.4,457c0.3-0.6,0.7-1.3,1-1.9
		c0.3,0.2,0.6,0.5,0.9,0.7h0.1C1279.8,456.2,1279.1,456.6,1278.4,457z M1280.6,455.6c0.1-0.1,0.1-0.2,0-0.3
		c-0.3-0.3-0.6-0.6-0.9-0.8c0.2-0.4,0.4-0.7,0.6-1.1c0.3,0.3,0.7,0.6,1,0.9c0.2,0.2,0.4,0.4,0.7,0.5
		C1281.5,455.1,1281.1,455.4,1280.6,455.6z M1282.4,454.5c-0.3-0.2-0.7-0.5-0.9-0.7c-0.3-0.3-0.7-0.6-1-0.8c0.2-0.4,0.5-0.8,0.7-1.3
		c0.8,0.7,1.7,1.4,2.6,1.9C1283.4,454,1282.9,454.2,1282.4,454.5z M1285.5,452.6c-0.4,0.3-0.8,0.5-1.2,0.8c-0.9-0.7-1.9-1.4-2.9-2.1
		c0.1-0.2,0.3-0.5,0.4-0.7s0.1-0.6-0.1-0.8c-2.5-2-4.9-4.1-7.2-6.3c0.1,0,0.2,0,0.4,0c3.5,3.1,7.1,6.2,10.8,9.1
		C1285.6,452.5,1285.5,452.5,1285.5,452.6z M1288.4,458.1c-0.7-1.7-1.3-3.3-1.8-5c0.9,0.7,1.8,1.4,2.8,2.1
		C1289,456.2,1288.7,457.2,1288.4,458.1z M1289.5,454.6c-4.4-3.9-9-7.6-13.7-11.2c0.6,0.1,1.1,0.2,1.7,0.3c0,0,0,0.1,0.1,0.1
		c4.1,3.2,8.2,6.5,12.3,9.7C1289.7,453.9,1289.6,454.3,1289.5,454.6z M1290.1,452.9c-3.6-3.2-7.4-6.1-11.3-8.9
		c0.8,0.2,1.6,0.5,2.4,0.9c0.4,0.2,0.9-0.1,1-0.4c2.8,2.3,5.6,4.7,8.5,6.9C1290.4,451.9,1290.2,452.4,1290.1,452.9z M1291.5,450.6
		c-0.2-0.1-0.4,0-0.6,0.1c-2.9-2.3-5.9-4.6-8.8-7c0-0.1,0-0.1,0-0.2c0-0.6,0-1.1,0-1.7c2.1,1.9,4.2,3.6,6.4,5.3
		c1.8,1.4,3.7,3,5.7,4.2C1293.3,451.2,1292.4,450.9,1291.5,450.6z M1295.7,451.7c0-0.1,0-0.3-0.1-0.4c-1.9-1.9-4.3-3.4-6.5-5
		c-2.3-1.8-4.7-3.6-7-5.3c0-0.8,0-1.6,0-2.4c5.1,4.3,10,8.9,15.1,13.3C1296.7,451.9,1296.2,451.8,1295.7,451.7z M1298.7,452.1
		c-5.2-5.1-10.9-9.7-16.5-14.3c0-0.9,0.1-1.9,0.2-2.8c1.1,1.3,2.2,2.5,3.3,3.8c0.7,0.8,1.7,2.4,2.7,2.6c0.1,0,0.2,0,0.3,0
		c1.1,0.9,2.2,1.8,3.3,2.6c0.6,0.5,1.3,1.1,1.9,1.6c-0.1,0.1-0.1,0.2-0.2,0.3c-0.2,0.3-0.1,0.6,0.1,0.8c1.7,2,3.6,3.7,5.6,5.4
		C1299.2,452.1,1299,452.1,1298.7,452.1z"/>
</g>
<g>
	<path class="st0" d="M1165.9,772.3c-2.1-1.6-6.9-4.5-6-7.3c0.8-2.5,2.4-4.9,3.2-7.5c0.2-0.5-0.4-1-0.8-0.8c-1.5,0.5-3,1.1-4.5,1.6
		c-1.1,0.4-3.4,1.8-4.5,1.6c-2.4-0.2-5.4-5.2-7-6.9c-0.4-0.4-1-0.1-1.1,0.4c-0.3,3.3-0.4,6.7,0,10c-2.7-1.2-5.4-1.7-8.4-1.5
		c-0.6,0-0.9,0.7-0.5,1.2c1.2,1.2,2.3,2.4,3.6,3.5c0.8,0.8,3.4,2.2,3.8,3.2c0.8,2.1-2.6,6.5-3.6,8.4c-0.3,0.6,0.3,1.3,1,1
		c2.9-1.6,5.7-3.3,8.4-5.1c0.7,2.1,1.5,4.2,2.4,6.3c0.3,0.6,1.1,0.3,1.3-0.2c0.9-2.7,1.8-5.4,2.6-8.2c3.2,1,6.4,1.5,9.7,1.4
		C1166.3,773.5,1166.4,772.7,1165.9,772.3z M1160.3,761c-0.6-0.5-1.2-1-1.9-1.5c1-0.3,1.9-0.7,2.9-1
		C1161,759.3,1160.6,760.2,1160.3,761z M1156.4,760.2c0.4-0.2,0.9-0.3,1.3-0.5c0.7,0.7,1.5,1.3,2.2,1.9c-0.2,0.4-0.3,0.8-0.5,1.2
		C1158.3,762,1157.2,761.2,1156.4,760.2C1156.4,760.3,1156.4,760.2,1156.4,760.2z M1155.6,760.6c1,1.1,2.2,2.2,3.6,2.9
		c-0.2,0.4-0.4,0.9-0.7,1.3c-0.6-0.5-1.3-0.9-1.9-1.4c-1-0.7-1.9-1.4-2.9-2.1C1154.3,761.1,1155,760.8,1155.6,760.6z M1142.4,777
		c0.3-0.6,0.7-1.3,1-1.9c0.3,0.2,0.6,0.5,0.9,0.7h0.1C1143.8,776.2,1143.1,776.6,1142.4,777z M1144.6,775.6c0.1-0.1,0.1-0.2,0-0.3
		c-0.3-0.3-0.6-0.6-0.9-0.8c0.2-0.4,0.4-0.7,0.6-1.1c0.3,0.3,0.7,0.6,1,0.9c0.2,0.2,0.4,0.4,0.7,0.5
		C1145.5,775.1,1145.1,775.4,1144.6,775.6z M1146.4,774.5c-0.3-0.2-0.7-0.5-0.9-0.7c-0.3-0.3-0.7-0.6-1-0.8c0.2-0.4,0.5-0.8,0.7-1.3
		c0.8,0.7,1.7,1.4,2.6,1.9C1147.4,774,1146.9,774.2,1146.4,774.5z M1149.5,772.6c-0.4,0.3-0.8,0.5-1.2,0.8c-0.9-0.7-1.9-1.4-2.9-2.1
		c0.1-0.2,0.3-0.5,0.4-0.7s0.1-0.6-0.1-0.8c-2.5-2-4.9-4.1-7.2-6.3c0.1,0,0.2,0,0.4,0c3.5,3.1,7.1,6.2,10.8,9.1
		C1149.6,772.5,1149.5,772.5,1149.5,772.6z M1152.4,778.1c-0.7-1.7-1.3-3.3-1.8-5c0.9,0.7,1.8,1.4,2.8,2.1
		C1153,776.2,1152.7,777.2,1152.4,778.1z M1153.5,774.6c-4.4-3.9-9-7.6-13.7-11.2c0.6,0.1,1.1,0.2,1.7,0.3c0,0,0,0.1,0.1,0.1
		c4.1,3.2,8.2,6.5,12.3,9.7C1153.7,773.9,1153.6,774.3,1153.5,774.6z M1154.1,772.9c-3.6-3.2-7.4-6.1-11.3-8.9
		c0.8,0.2,1.6,0.5,2.4,0.9c0.4,0.2,0.9-0.1,1-0.4c2.8,2.3,5.6,4.7,8.5,6.9C1154.4,771.9,1154.2,772.4,1154.1,772.9z M1155.5,770.6
		c-0.2-0.1-0.4,0-0.6,0.1c-2.9-2.3-5.9-4.6-8.8-7c0-0.1,0-0.1,0-0.2c0-0.6,0-1.1,0-1.7c2.1,1.9,4.2,3.6,6.4,5.3
		c1.8,1.4,3.7,3,5.7,4.2C1157.3,771.2,1156.4,770.9,1155.5,770.6z M1159.7,771.7c0-0.1,0-0.3-0.1-0.4c-1.9-1.9-4.3-3.4-6.5-5
		c-2.3-1.8-4.7-3.6-7-5.3c0-0.8,0-1.6,0-2.4c5.1,4.3,10,8.9,15.1,13.3C1160.7,771.9,1160.2,771.8,1159.7,771.7z M1162.7,772.1
		c-5.2-5.1-10.9-9.7-16.5-14.3c0-0.9,0.1-1.9,0.2-2.8c1.1,1.3,2.2,2.5,3.3,3.8c0.7,0.8,1.7,2.4,2.7,2.6c0.1,0,0.2,0,0.3,0
		c1.1,0.9,2.2,1.8,3.3,2.6c0.6,0.5,1.3,1.1,1.9,1.6c-0.1,0.1-0.1,0.2-0.2,0.3c-0.2,0.3-0.1,0.6,0.1,0.8c1.7,2,3.6,3.7,5.6,5.4
		C1163.2,772.1,1163,772.1,1162.7,772.1z"/>
</g>
<g>
	<path class="st0" d="M230,194.3c-2.1-1.6-6.9-4.5-6-7.3c0.8-2.5,2.4-4.9,3.2-7.5c0.2-0.5-0.4-1-0.8-0.8c-1.5,0.5-3,1.1-4.5,1.6
		c-1.1,0.4-3.4,1.8-4.5,1.6c-2.4-0.2-5.4-5.2-7-6.9c-0.4-0.4-1-0.1-1.1,0.4c-0.3,3.3-0.4,6.7,0,10c-2.7-1.2-5.4-1.7-8.4-1.5
		c-0.6,0-0.9,0.7-0.5,1.2c1.2,1.2,2.3,2.4,3.6,3.5c0.8,0.8,3.4,2.2,3.8,3.2c0.8,2.1-2.6,6.5-3.6,8.4c-0.3,0.6,0.3,1.3,1,1
		c2.9-1.6,5.7-3.3,8.4-5.1c0.7,2.1,1.5,4.2,2.4,6.3c0.3,0.6,1.1,0.3,1.3-0.2c0.9-2.7,1.8-5.4,2.6-8.2c3.2,1,6.4,1.5,9.7,1.4
		C230.4,195.5,230.5,194.7,230,194.3z M224.4,183c-0.6-0.5-1.2-1-1.9-1.5c1-0.3,1.9-0.7,2.9-1C225.1,181.3,224.7,182.2,224.4,183z
		 M220.5,182.2c0.4-0.2,0.9-0.3,1.3-0.5c0.7,0.7,1.5,1.3,2.2,1.9c-0.2,0.4-0.3,0.8-0.5,1.2C222.4,184,221.3,183.2,220.5,182.2
		C220.5,182.3,220.5,182.2,220.5,182.2z M219.7,182.6c1,1.1,2.2,2.2,3.6,2.9c-0.2,0.4-0.4,0.9-0.7,1.3c-0.6-0.5-1.3-0.9-1.9-1.4
		c-1-0.7-1.9-1.4-2.9-2.1C218.4,183.1,219.1,182.8,219.7,182.6z M206.5,199c0.3-0.6,0.7-1.3,1-1.9c0.3,0.2,0.6,0.5,0.9,0.7h0.1
		C207.9,198.2,207.2,198.6,206.5,199z M208.7,197.6c0.1-0.1,0.1-0.2,0-0.3c-0.3-0.3-0.6-0.6-0.9-0.8c0.2-0.4,0.4-0.7,0.6-1.1
		c0.3,0.3,0.7,0.6,1,0.9c0.2,0.2,0.4,0.4,0.7,0.5C209.6,197.1,209.2,197.4,208.7,197.6z M210.5,196.5c-0.3-0.2-0.7-0.5-0.9-0.7
		c-0.3-0.3-0.7-0.6-1-0.8c0.2-0.4,0.5-0.8,0.7-1.3c0.8,0.7,1.7,1.4,2.6,1.9C211.5,196,211,196.2,210.5,196.5z M213.6,194.6
		c-0.4,0.3-0.8,0.5-1.2,0.8c-0.9-0.7-1.9-1.4-2.9-2.1c0.1-0.2,0.3-0.5,0.4-0.7s0.1-0.6-0.1-0.8c-2.5-2-4.9-4.1-7.2-6.3
		c0.1,0,0.2,0,0.4,0c3.5,3.1,7.1,6.2,10.8,9.1C213.7,194.5,213.6,194.5,213.6,194.6z M216.5,200.1c-0.7-1.7-1.3-3.3-1.8-5
		c0.9,0.7,1.8,1.4,2.8,2.1C217.1,198.2,216.8,199.2,216.5,200.1z M217.6,196.6c-4.4-3.9-9-7.6-13.7-11.2c0.6,0.1,1.1,0.2,1.7,0.3
		c0,0,0,0.1,0.1,0.1c4.1,3.2,8.2,6.5,12.3,9.7C217.8,195.9,217.7,196.3,217.6,196.6z M218.2,194.9c-3.6-3.2-7.4-6.1-11.3-8.9
		c0.8,0.2,1.6,0.5,2.4,0.9c0.4,0.2,0.9-0.1,1-0.4c2.8,2.3,5.6,4.7,8.5,6.9C218.5,193.9,218.3,194.4,218.2,194.9z M219.6,192.6
		c-0.2-0.1-0.4,0-0.6,0.1c-2.9-2.3-5.9-4.6-8.8-7c0-0.1,0-0.1,0-0.2c0-0.6,0-1.1,0-1.7c2.1,1.9,4.2,3.6,6.4,5.3
		c1.8,1.4,3.7,3,5.7,4.2C221.4,193.2,220.5,192.9,219.6,192.6z M223.8,193.7c0-0.1,0-0.3-0.1-0.4c-1.9-1.9-4.3-3.4-6.5-5
		c-2.3-1.8-4.7-3.6-7-5.3c0-0.8,0-1.6,0-2.4c5.1,4.3,10,8.9,15.1,13.3C224.8,193.9,224.3,193.8,223.8,193.7z M226.8,194.1
		c-5.2-5.1-10.9-9.7-16.5-14.3c0-0.9,0.1-1.9,0.2-2.8c1.1,1.3,2.2,2.5,3.3,3.8c0.7,0.8,1.7,2.4,2.7,2.6c0.1,0,0.2,0,0.3,0
		c1.1,0.9,2.2,1.8,3.3,2.6c0.6,0.5,1.3,1.1,1.9,1.6c-0.1,0.1-0.1,0.2-0.2,0.3c-0.2,0.3-0.1,0.6,0.1,0.8c1.7,2,3.6,3.7,5.6,5.4
		C227.3,194.1,227.1,194.1,226.8,194.1z"/>
</g>
</svg>
