<?xml version="1.0" encoding="utf-8"?>
<!-- Generator: Adobe Illustrator 21.1.0, SVG Export Plug-In . SVG Version: 6.00 Build 0)  -->
<svg version="1.1" id="Слой_1" xmlns="http://www.w3.org/2000/svg" xmlns:xlink="http://www.w3.org/1999/xlink" x="0px" y="0px"
	 width="1877.3px" height="1567.8px" viewBox="0 0 1877.3 1567.8" style="enable-background:new 0 0 1877.3 1567.8;"
	 xml:space="preserve">
<style type="text/css">
	.st0{fill:#FFFFFF;}
	.st1{fill:#FFFFFF;stroke:#FFFFFF;stroke-width:2;stroke-miterlimit:10;}
	.st2{fill:none;stroke:#FFFFFF;stroke-width:2;}
</style>
<path class="st0" d="M171,1228.7c-2-1.6-6.9-4.5-6-7.3c0.8-2.5,2.4-4.9,3.2-7.5c0.2-0.5-0.4-1-0.8-0.8c-1.5,0.5-3,1.1-4.5,1.6
	c-1.1,0.4-3.4,1.8-4.5,1.6c-2.4-0.2-5.4-5.2-7-6.9c-0.4-0.4-1-0.1-1.1,0.4c-0.3,3.3-0.4,6.7,0,10c-2.7-1.2-5.4-1.7-8.4-1.5
	c-0.6,0-0.9,0.7-0.5,1.2c1.2,1.2,2.3,2.4,3.6,3.5c0.8,0.8,3.4,2.2,3.8,3.2c0.8,2.1-2.6,6.5-3.6,8.4c-0.3,0.6,0.3,1.3,1,0.9
	c2.9-1.6,5.7-3.3,8.4-5.1c0.7,2.1,1.5,4.2,2.4,6.3c0.3,0.6,1.1,0.3,1.3-0.2c0.9-2.7,1.7-5.5,2.6-8.2c3.2,1,6.4,1.5,9.7,1.4
	C171.4,1229.9,171.5,1229.1,171,1228.7z M165.4,1217.4c-0.6-0.5-1.2-1-1.9-1.5c1-0.3,1.9-0.7,2.9-1
	C166.1,1215.7,165.8,1216.6,165.4,1217.4z M161.5,1216.6c0.4-0.2,0.9-0.3,1.3-0.5c0.7,0.7,1.5,1.3,2.2,1.9c-0.2,0.4-0.4,0.8-0.5,1.2
	c-1.1-0.8-2.2-1.6-3.1-2.5C161.5,1216.7,161.5,1216.6,161.5,1216.6z M160.7,1217c1,1.1,2.2,2.2,3.6,2.9c-0.2,0.4-0.4,0.9-0.7,1.3
	c-0.6-0.5-1.3-0.9-1.9-1.4c-1-0.7-1.9-1.4-2.9-2.1C159.4,1217.5,160.1,1217.2,160.7,1217z M147.5,1233.4c0.3-0.6,0.7-1.3,1-1.9
	c0.3,0.2,0.6,0.5,0.9,0.7h0.1C148.9,1232.6,148.2,1233,147.5,1233.4z M149.7,1232c0-0.1,0.1-0.2,0-0.3c-0.3-0.3-0.6-0.6-0.9-0.8
	c0.2-0.4,0.4-0.7,0.6-1.1c0.3,0.3,0.7,0.6,1,0.9c0.2,0.2,0.4,0.4,0.7,0.5C150.6,1231.5,150.2,1231.8,149.7,1232z M151.5,1230.9
	c-0.3-0.2-0.6-0.5-0.9-0.7c-0.3-0.3-0.7-0.6-1-0.8c0.2-0.4,0.5-0.8,0.7-1.3c0.8,0.7,1.7,1.4,2.6,1.9
	C152.5,1230.4,152,1230.6,151.5,1230.9z M154.6,1229c-0.4,0.3-0.8,0.5-1.2,0.8c-0.9-0.7-1.9-1.4-2.9-2.1c0.1-0.2,0.3-0.5,0.4-0.7
	c0.1-0.2,0.1-0.6-0.1-0.8c-2.5-2-4.9-4.1-7.2-6.3c0.1,0,0.2,0,0.4,0c3.5,3.1,7.1,6.2,10.8,9.1C154.7,1228.9,154.6,1228.9,154.6,1229
	z M157.5,1234.5c-0.7-1.7-1.3-3.3-1.8-5c0.9,0.7,1.8,1.4,2.8,2.1C158.1,1232.6,157.8,1233.6,157.5,1234.5z M158.6,1231
	c-4.4-3.9-9.1-7.6-13.7-11.2c0.6,0.1,1.1,0.2,1.7,0.3c0,0,0,0.1,0.1,0.1c4.1,3.2,8.2,6.5,12.3,9.7
	C158.8,1230.3,158.7,1230.7,158.6,1231z M159.2,1229.3c-3.6-3.2-7.4-6.1-11.3-8.9c0.8,0.2,1.6,0.5,2.4,0.9c0.4,0.2,0.9-0.1,1-0.4
	c2.8,2.3,5.6,4.7,8.5,6.9C159.5,1228.3,159.3,1228.8,159.2,1229.3z M160.6,1227c-0.2-0.1-0.4,0-0.6,0.1c-2.9-2.3-5.9-4.6-8.8-7
	c0-0.1,0-0.1,0-0.2c0-0.6,0-1.1,0-1.7c2.1,1.9,4.2,3.6,6.4,5.3c1.8,1.4,3.7,3,5.7,4.2C162.4,1227.6,161.5,1227.3,160.6,1227z
	 M164.8,1228.1c0-0.1,0-0.3-0.1-0.4c-1.9-1.9-4.3-3.4-6.5-5c-2.4-1.8-4.7-3.6-7-5.3c0-0.8,0-1.6,0-2.4c5.1,4.3,10,8.9,15.1,13.3
	C165.8,1228.3,165.3,1228.2,164.8,1228.1z M167.8,1228.5c-5.2-5.1-10.9-9.7-16.5-14.3c0-0.9,0.1-1.9,0.2-2.8
	c1.1,1.3,2.2,2.5,3.3,3.8c0.7,0.8,1.6,2.4,2.7,2.6c0.1,0,0.2,0,0.3,0c1.1,0.9,2.2,1.8,3.3,2.6c0.6,0.5,1.3,1.1,1.9,1.6
	c-0.1,0.1-0.1,0.2-0.2,0.3c-0.2,0.3-0.1,0.6,0.1,0.8c1.7,2,3.6,3.7,5.6,5.4C168.3,1228.5,168.1,1228.5,167.8,1228.5z"/>
<path class="st0" d="M1621,276.7c-2.1-1.6-6.9-4.5-6-7.3c0.8-2.5,2.4-4.9,3.2-7.5c0.2-0.5-0.4-1-0.8-0.8c-1.5,0.5-3,1.1-4.5,1.6
	c-1.1,0.4-3.4,1.8-4.5,1.6c-2.4-0.2-5.4-5.2-7-6.9c-0.4-0.4-1-0.1-1.1,0.4c-0.3,3.3-0.4,6.7,0,10c-2.7-1.2-5.4-1.7-8.4-1.5
	c-0.6,0-0.9,0.7-0.5,1.2c1.2,1.2,2.3,2.4,3.6,3.5c0.8,0.8,3.4,2.2,3.8,3.2c0.8,2.1-2.6,6.5-3.6,8.4c-0.3,0.6,0.3,1.3,1,0.9
	c2.9-1.6,5.7-3.3,8.4-5.1c0.7,2.1,1.5,4.2,2.4,6.3c0.3,0.6,1.1,0.3,1.3-0.2c0.9-2.7,1.8-5.5,2.6-8.2c3.2,1,6.4,1.5,9.7,1.4
	C1621.4,277.9,1621.5,277.1,1621,276.7z M1615.4,265.4c-0.6-0.5-1.2-1-1.9-1.5c1-0.3,1.9-0.7,2.9-1
	C1616.1,263.7,1615.7,264.6,1615.4,265.4z M1611.5,264.6c0.4-0.2,0.9-0.3,1.3-0.5c0.7,0.7,1.5,1.3,2.2,1.9c-0.2,0.4-0.3,0.8-0.5,1.2
	c-1.1-0.8-2.2-1.6-3.1-2.5C1611.5,264.7,1611.5,264.6,1611.5,264.6z M1610.7,265c1,1.1,2.2,2.2,3.6,2.9c-0.2,0.4-0.4,0.9-0.7,1.3
	c-0.6-0.5-1.3-0.9-1.9-1.4c-1-0.7-1.9-1.4-2.9-2.1C1609.4,265.5,1610.1,265.2,1610.7,265z M1597.5,281.4c0.3-0.6,0.7-1.3,1-1.9
	c0.3,0.2,0.6,0.5,0.9,0.7h0.1C1598.9,280.6,1598.2,281,1597.5,281.4z M1599.7,280c0.1-0.1,0.1-0.2,0-0.3c-0.3-0.3-0.6-0.6-0.9-0.8
	c0.2-0.4,0.4-0.7,0.6-1.1c0.3,0.3,0.7,0.6,1,0.9c0.2,0.2,0.4,0.4,0.7,0.5C1600.6,279.5,1600.2,279.8,1599.7,280z M1601.5,278.9
	c-0.3-0.2-0.7-0.5-0.9-0.7c-0.3-0.3-0.7-0.6-1-0.8c0.2-0.4,0.5-0.8,0.7-1.3c0.8,0.7,1.7,1.4,2.6,1.9
	C1602.5,278.4,1602,278.6,1601.5,278.9z M1604.6,277c-0.4,0.3-0.8,0.5-1.2,0.8c-0.9-0.7-1.9-1.4-2.9-2.1c0.1-0.2,0.3-0.5,0.4-0.7
	s0.1-0.6-0.1-0.8c-2.5-2-4.9-4.1-7.2-6.3c0.1,0,0.2,0,0.4,0c3.5,3.1,7.1,6.2,10.8,9.1C1604.7,276.9,1604.6,276.9,1604.6,277z
	 M1607.5,282.5c-0.7-1.7-1.3-3.3-1.8-5c0.9,0.7,1.8,1.4,2.8,2.1C1608.1,280.6,1607.8,281.6,1607.5,282.5z M1608.6,279
	c-4.4-3.9-9-7.6-13.7-11.2c0.6,0.1,1.1,0.2,1.7,0.3c0,0,0,0.1,0.1,0.1c4.1,3.2,8.2,6.5,12.3,9.7
	C1608.8,278.3,1608.7,278.7,1608.6,279z M1609.2,277.3c-3.6-3.2-7.4-6.1-11.3-8.9c0.8,0.2,1.6,0.5,2.4,0.9c0.4,0.2,0.9-0.1,1-0.4
	c2.8,2.3,5.6,4.7,8.5,6.9C1609.5,276.3,1609.3,276.8,1609.2,277.3z M1610.6,275c-0.2-0.1-0.4,0-0.6,0.1c-2.9-2.3-5.9-4.6-8.8-7
	c0-0.1,0-0.1,0-0.2c0-0.6,0-1.1,0-1.7c2.1,1.9,4.2,3.6,6.4,5.3c1.8,1.4,3.7,3,5.7,4.2C1612.4,275.6,1611.5,275.3,1610.6,275z
	 M1614.8,276.1c0-0.1,0-0.3-0.1-0.4c-1.9-1.9-4.3-3.4-6.5-5c-2.3-1.8-4.7-3.6-7-5.3c0-0.8,0-1.6,0-2.4c5.1,4.3,10,8.9,15.1,13.3
	C1615.8,276.3,1615.3,276.2,1614.8,276.1z M1617.8,276.5c-5.2-5.1-10.9-9.7-16.5-14.3c0-0.9,0.1-1.9,0.2-2.8
	c1.1,1.3,2.2,2.5,3.3,3.8c0.7,0.8,1.7,2.4,2.7,2.6c0.1,0,0.2,0,0.3,0c1.1,0.9,2.2,1.8,3.3,2.6c0.6,0.5,1.3,1.1,1.9,1.6
	c-0.1,0.1-0.1,0.2-0.2,0.3c-0.2,0.3-0.1,0.6,0.1,0.8c1.7,2,3.6,3.7,5.6,5.4C1618.3,276.5,1618.1,276.5,1617.8,276.5z"/>
<path class="st0" d="M1700.7,731.3c-6.5-4.3-14.4-6.3-22.5-6.7c-0.1-0.1-0.2-0.2-0.2-0.3c-0.3-0.3-0.6-0.1-0.6,0.2
	c-12.2-0.3-24.8,3.2-34.3,9c-5.6,3.5-10.1,7.9-13.5,13.1c-0.2-0.1-0.5,0.2-0.3,0.4l0,0c-3.4,5.2-5.6,11-6.8,17.1
	c-0.4-0.3-0.9,0.2-0.5,0.6c0.1,0.1,0.2,0.2,0.3,0.3c-0.2,0.9-0.3,1.9-0.4,2.8c-0.2,0.1-0.2,0.3-0.1,0.5l0,0
	c-0.3,2.2-0.4,4.4-0.4,6.6c-0.1,0.1-0.1,0.2,0,0.3c0,4.2,0.5,8.4,1.4,12.5c5.8,25.7,31.4,37.2,55.9,35.3c0.1,0.1,0.2,0.1,0.3,0.1
	c5.5,0.6,10.8-1.9,15.7-4c5-2.1,9.7-4.6,13.7-8.3c7.8-7.2,12.4-17.4,13.7-27.8C1724.6,764.1,1717.5,742.3,1700.7,731.3z
	 M1715.9,757.7c0.7,0.6,1.3,1.2,1.9,1.9s1.1,1.5,1.7,2.2c0.1,0.1,0.1,0.1,0.2,0.1c0.3,1.1,0.5,2.1,0.7,3.2c-2.1-2.9-4.4-5.6-6.8-8.3
	C1714.3,757.2,1715.1,757.6,1715.9,757.7z M1719.2,759.8c-0.6-0.7-1.3-1.3-1.9-1.9c0.5,0,0.9-0.1,1.3-0.2
	C1718.8,758.4,1719,759.1,1719.2,759.8z M1718.2,756.6c-3.5,0.4-6.3-3.2-8.8-5.2c-1.7-1.4-3.6-3.2-4-5.6c-0.3-2.3,1.5-4.6,3.1-6.2
	C1712.8,744.5,1716,750.3,1718.2,756.6z M1707.9,739c-0.6,0.5-1.2,1-1.7,1.6c-1.4-1.9-3.2-3.6-4.9-5.3c-1.6-1.6-3.1-3.2-4.7-4.7
	C1701,732.7,1704.8,735.6,1707.9,739z M1692.6,728.8c0.8,0.3,1.6,0.6,2.4,0.9c1.8,1.9,3.7,3.8,5.4,5.8c1.7,1.9,3.3,4,5.2,5.7
	c-0.4,0.6-0.7,1.2-0.9,1.8c-1.9-2.6-4.3-4.8-6.5-7.1c-2.5-2.6-5-5.3-7.6-7.8C1691.3,728.4,1692,728.6,1692.6,728.8z M1690.2,728.1
	c0,0.1,0,0.1,0,0.2c2.3,2.7,4.7,5.3,7,8c2.3,2.6,4.5,5.5,7.2,7.7c0,0,0.1,0,0.1,0.1c-0.2,1-0.2,2,0,2.9c-0.2-0.2-0.3-0.3-0.5-0.5
	c-5.7-6.4-11.2-12.8-17-19.1C1688.1,727.5,1689.2,727.8,1690.2,728.1z M1686.2,727.1c5.3,6.7,11,13.2,16.5,19.7
	c5.6,6.5,11,13.8,17.4,19.5c0.2,0.1,0.3,0.1,0.5,0.1c0.4,2.1,0.6,4.3,0.7,6.4l0,0c0,0,0,0,0-0.1c-6.1-8-13.3-15.2-19.7-23
	c-6.3-7.6-12.2-15.6-18.5-23.2C1684.1,726.8,1685.2,726.9,1686.2,727.1z M1677.5,726.1c0.3,0,0.6,0,0.9,0
	c6.7,8.5,13.6,16.9,20.2,25.4c6.5,8.4,12.8,17.1,19.5,25.3c-0.2,0-0.5,0-0.7,0c-13.7-16-27.2-32.1-40.3-48.5
	C1677.2,727.7,1677.4,726.9,1677.5,726.1z M1715.6,777c-0.4,0-0.7,0.1-1.1,0.2c-6.2-7.7-13.1-14.9-19.5-22.5
	c-6.4-7.7-12.6-15.5-18.8-23.4c0.2-0.6,0.4-1.1,0.5-1.7C1688.9,745.9,1701.9,761.8,1715.6,777z M1712.9,776.9
	c-0.1-0.2-0.3-0.3-0.4-0.5c0.3,0.3,0.7,0.7,1,1c-0.1,0-0.3,0.1-0.4,0.1C1713.1,777.3,1713.1,777.1,1712.9,776.9z M1710.4,778.2
	c-6-7.1-12.6-13.7-18.7-20.7s-11.4-14.6-17.6-21.4c0.3-0.6,0.6-1.1,0.8-1.7c12,14.7,24.1,29.5,37,43.5c0,0,0,0,0.1,0
	c-0.5,0.2-1,0.5-1.5,0.8C1710.6,778.5,1710.6,778.3,1710.4,778.2z M1707.8,780.9c-0.3,0.3-0.6,0.7-0.9,1c-2.8-4.2-6.3-8-9.4-12
	c0.1-0.7,0.2-1.4,0.1-2c0.3,0.4,0.7,0.7,1,1.1c1.5,1.7,2.9,3.5,4.4,5.2c0.7,0.9,1.5,1.7,2.2,2.6c0.4,0.5,2.3,2.1,3,2.9
	c-0.2-0.1-0.5,0-0.6,0.3c0,0.1,0,0.1-0.1,0.2C1707.5,780.5,1707.7,780.7,1707.8,780.9z M1701.3,781.1c-0.1-0.1-0.2-0.1-0.2-0.1
	c0-0.3,0.1-0.7,0.1-1s0-0.7-0.1-1c1.2,1.5,2.4,3.2,3.9,4.5c-0.4,0.5-0.9,0.7-1.5,0.6c-0.2-0.5-0.6-1-1-1.4
	C1702.1,782.1,1701.7,781.6,1701.3,781.1z M1702.3,783.5c-1.5,0-2-0.6-1.3-2.1c0.3,0.5,0.6,1,1,1.5
	C1702.1,783.1,1702.2,783.3,1702.3,783.5z M1701.6,778.2c-1.5-1.7-3.1-3.3-4.8-4.8c0.2-0.9,0.4-1.9,0.6-2.9c2.8,4,5.6,8.3,9,11.8
	c-0.2,0.2-0.5,0.5-0.8,0.7C1704.6,781.3,1703,779.7,1701.6,778.2z M1698.5,776c-0.7-0.2-1.4-0.3-2.1-0.2c0.1-0.6,0.2-1.2,0.4-1.9
	C1697.3,774.6,1697.9,775.3,1698.5,776z M1707.8,778.2c-1.5-1.7-3-3.4-4.5-5.2c-2-2.3-4-4.7-6-7.1c-0.3-0.6-0.7-1.1-1.2-1.5
	c-1-1.2-2-2.3-2.9-3.5c-6.5-7.8-13.2-15.5-20-23.1c0.2-0.4,0.4-0.7,0.6-1.1c0-0.1,0.1-0.2,0.2-0.3c4.9,7.5,11.1,14.3,16.8,21.1
	c6.1,7.2,12.2,14.7,19.2,21.1c0.1,0.1,0.1,0.1,0.2,0.1c-0.2,0.1-0.4,0.3-0.6,0.4c-0.1,0.1-0.3,0.2-0.4,0.3
	C1708.8,779.1,1708.3,778.7,1707.8,778.2z M1681.5,760.5c-1.2-1.1-2.3-0.6-2.5-3.4c-0.1-0.6,0.2-1.3,0.3-2c2.7,3.5,5.4,7,8.3,10.2
	c-0.6,0.2-1.1,0.4-1.7,0.4c-0.9,0.4-1.7,0.1-2.2-1c0.1-0.3,0.1-0.5,0.2-0.8C1683.4,762.1,1683.1,761.9,1681.5,760.5z M1679.4,754.6
	c0-0.2,0.1-0.3,0.1-0.5c0.1-0.4,0.1-0.8,0.1-1.3c3.3,3.9,6.7,7.8,10,11.7c-0.2,0.1-0.5,0.2-0.7,0.3s-0.3,0.1-0.5,0.2
	c0-0.1,0-0.1-0.1-0.2C1685.6,761.3,1682.5,758,1679.4,754.6z M1671.2,741.8c0.2-0.5,0.4-1,0.7-1.5c6.7,7.9,13.4,15.8,20.1,23.6
	c-0.6,0.1-1.1,0.3-1.7,0.4C1684,756.8,1677.8,749.2,1671.2,741.8z M1673,747.1c-0.8-0.9-1.7-1.7-2.5-2.6c0.1-0.7,0.3-1.4,0.5-2.1
	c2,2.5,4,5,6.1,7.4c-0.5-0.1-1.1-0.2-1.7-0.2C1674.7,748.7,1673.7,747.9,1673,747.1z M1674,749.4c-2.8-0.6-3.7-2.2-3.6-4.1
	c0.7,0.8,1.3,1.6,2,2.4C1672.9,748.2,1673.5,748.8,1674,749.4z M1672.1,739.7c0.2-0.4,0.4-0.8,0.6-1.2c5.7,7,11.4,13.9,17.3,20.7
	c1.3,1.6,2.7,3.1,4.1,4.7c-0.3,0-0.7-0.1-1.1,0C1686.3,755.6,1679.3,747.6,1672.1,739.7z M1675.2,733.7c0.2-0.5,0.5-1.1,0.7-1.7
	c5.7,7.8,11.8,15.3,17.9,22.8c1.3,1.6,2.7,3.3,4,4.9C1690.3,751.2,1682.7,742.6,1675.2,733.7
	C1675.3,733.8,1675.3,733.8,1675.2,733.7z M1635.5,741.2c2.3,2.6,4.6,5.2,7,7.8c2.4,2.7,4.8,5.7,7.5,8c0.3,0.3,1-0.1,0.7-0.5
	c-4.1-5.7-9.7-10.7-14.7-15.7c0.5-0.5,1.1-1,1.6-1.5c0.1,0,0.1-0.1,0.2-0.1c4.3,5.4,8.8,11.3,14.1,15.8l0.1,0.1
	c-0.1,0.2-0.2,0.4-0.3,0.6c-0.7,1.4-2.1,2.2-2.7,3.7c0,0,0,0.1-0.1,0.1c-4.5-5.8-10-11.1-15-16.5
	C1634.4,742.3,1635,741.8,1635.5,741.2z M1647.7,748.8c2.3,1.3,4.7,2.8,4.5,5.3C1650.8,752.2,1649.3,750.5,1647.7,748.8z
	 M1633.5,743.4c4.9,5.7,9.7,11.9,15.1,17.1c-0.4,2.3,1.4,4,3.4,5.4c2.8,1.9,6.6,4.2,4.5,6.8c-8.1-9.1-16.1-18.4-24.5-27.3
	C1632.5,744.6,1633,744,1633.5,743.4z M1630,748.2c6.9,9.2,14.6,18,22.5,26.3c0.6,0.6,1.5-0.3,0.9-0.9c-7.9-8.5-15.4-17.2-23-25.9
	c0.4-0.6,0.8-1.2,1.3-1.8c7.5,9.5,15.9,18.6,24.4,27.3c-0.5,0.4-1.1,0.8-1.9,1.3c-0.5,0.2-0.9,0.4-1.4,0.5c-1.2-1.7-3-3.2-4.5-4.7
	c-2.2-2.2-4.4-4.5-6.6-6.8c-4.2-4.4-8.5-8.9-12.8-13.2C1629.1,749.6,1629.6,748.9,1630,748.2z M1628.3,751
	c4.1,4.5,8.3,8.8,12.5,13.2c2.2,2.3,4.3,4.6,6.5,6.9c1.4,1.5,2.7,3.2,4.3,4.5c-0.2,0.2-0.3,0.4-0.4,0.7c-0.3,0.6-0.3,1.2,0,1.9
	c1,1.8,6.5,2.7,3.7,5.6c-4.2-5.4-9.4-10.2-14-15.2s-9-10.3-13.6-15.3C1627.6,752.5,1627.9,751.7,1628.3,751z M1626.9,753.9
	c4,5.1,8.4,10,12.7,14.8c4.7,5.2,9.2,11,14.5,15.6c-0.3,0.2-0.6,0.4-0.9,0.7c-0.4,0.3-0.8,0.5-1.2,0.7c0,0,0-0.1-0.1-0.1
	c-4.1-5.1-9.2-9.6-13.7-14.3c-4.3-4.5-8.3-9.5-12.9-13.7C1625.9,756.3,1626.4,755.1,1626.9,753.9z M1625.3,758
	c3.6,4.7,7.9,9,11.9,13.4c4.5,4.9,8.9,10.4,14,14.8c-0.5,0.2-0.9,0.4-1.4,0.6l0,0c-8-8.9-16.9-17.1-25.4-25.5
	C1624.6,760.1,1624.9,759.1,1625.3,758z M1624.1,762c8,8.5,16.1,17.4,24.8,25.1c-0.8,0.3-1.6,0.6-2.4,0.9
	c-3.2-4.2-7.5-7.9-11.2-11.5c-3.9-3.8-7.8-7.6-11.9-11.2C1623.6,764.1,1623.9,763.1,1624.1,762z M1623.2,766.2
	c3.6,3.5,7.3,7,10.9,10.5c3.8,3.8,7.4,8.1,11.4,11.8c-0.7,0.4-1.4,0.8-2,1.3c-7.2-6.7-14-13.7-20.6-21
	C1623,767.9,1623.1,767.1,1623.2,766.2z M1622.8,769.8c6.2,7.3,13,14.1,20,20.7l0,0c-0.3,0.3-0.5,0.6-0.8,0.9
	c-3.1-3-6.3-5.9-9.4-8.9c-3.4-3.3-6.5-6.9-10-10.1C1622.6,771.5,1622.7,770.6,1622.8,769.8z M1622.5,773.3
	c5.5,6.7,12.3,13.3,19,18.8c-0.5,0.9-0.7,1.7-0.7,2.6c-6.2-6.2-12.2-12.5-18.3-18.8C1622.5,775,1622.5,774.1,1622.5,773.3z
	 M1622.5,776.8c5.8,6.7,12.1,13.1,18.4,19.3c0.7,3.3,3.7,6.5,5.5,9.8c-3.5-4.5-7.7-8.5-11.6-12.6c-4-4.3-8-8.7-12.2-12.9
	C1622.7,779.2,1622.6,778,1622.5,776.8z M1622.9,781.5c3.6,4,7.3,7.9,10.9,11.9c4,4.4,7.9,9.1,12.4,13.1c0.2,0.2,0.5,0,0.5-0.2
	c0.7,1.3,1.1,2.6,1.2,3.8l0,0c-8.5-8.1-16.7-16.5-24.5-25.3C1623.2,783.7,1623,782.6,1622.9,781.5z M1623.7,786.2
	c7.5,8.5,15.3,16.8,23.6,24.5c0.2,0.2,0.4,0.1,0.6,0c-0.1,0.7-0.3,1.4-0.6,2.2c-8.2-7.7-15.9-15.6-23-24.4
	C1624,787.7,1623.8,786.9,1623.7,786.2z M1626.9,796.4c4.8,6.9,11,13.3,17.2,18.6C1636.6,810.7,1630.5,804.3,1626.9,796.4z
	 M1663.5,821.5c0-0.1,0-0.2-0.1-0.3c-1-1.1-2.3-2.1-3.3-3.3c-1.1-1.1-2.1-2.3-3.1-3.5l0,0c0-0.6,0.1-1,0.3-1.4
	c2.5,2.9,5,5.9,7.7,8.6C1664.6,821.6,1664.1,821.5,1663.5,821.5z M1666.1,821.8c0-0.1,0-0.1-0.1-0.2c-2.5-3.1-5.5-6-8.3-8.9
	c0.4-0.3,1-0.5,1.6-0.6c2.7,3.2,5.3,6.7,8.2,9.8C1667.1,821.9,1666.6,821.8,1666.1,821.8z M1668.6,822c-2.4-3.6-5.7-6.8-8.7-9.9
	c1,0,2,0.1,2.8,0.3c-0.1,0.1-0.1,0.1,0,0.2c1.5,1.9,3.1,3.8,4.8,5.5c1.3,1.4,2.6,2.9,4.1,4.1C1670.6,822.2,1669.6,822.1,1668.6,822z
	 M1672.7,822.3c-1.3-1.7-3.1-3.1-4.7-4.7c-1.7-1.7-3.4-3.4-5-5.2c0.5,0.1,0.9,0.3,1.5,0.3c0.5-0.1,0.9-0.2,1.3-0.5
	c3,3.5,6.1,7.1,9.5,10.1C1674.4,822.4,1673.5,822.3,1672.7,822.3z M1680.9,822.4c-0.4,0-0.8,0-1.2,0v-0.1c-1.7-2.1-3.7-4-5.6-6
	s-3.7-4.1-5.8-5.8c-0.2-0.2-0.6,0.1-0.4,0.3c1.6,2.1,3.4,3.9,5.2,5.8c1.8,1.9,3.5,4,5.4,5.8c-0.7,0-1.4,0-2.2,0
	c-3.4-3.5-6.9-6.9-10.2-10.5c0.1-0.1,0.3-0.3,0.4-0.4c0.6-0.6,1.1-1.2,1.8-1.7c0.4-0.3,0.7-0.5,1.1-0.7c1.7,2,3.4,3.9,5.1,5.8
	c1.6,1.7,3.3,3.9,5.3,5.1c0.3,0.2,0.6-0.2,0.5-0.5c-1.3-2-3.4-3.6-5.1-5.3c-1.7-1.8-3.4-3.6-5.2-5.4c0.4-0.1,0.9-0.2,1.3-0.2
	c1.7,1.6,3.3,3.2,4.9,4.8c1.5,1.5,2.9,3.5,4.7,4.7C1680.8,819.6,1680.2,821.1,1680.9,822.4z M1672.3,808.8c1,0.2,2,0.9,2.7,1.9
	c0.2,0.3,0.3,0.6,0.5,1C1674.5,810.7,1673.4,809.8,1672.3,808.8z M1678.4,814.4c0.1,0,0.3,0,0.5,0.1c1.8,0.7,2.3,1.7,2.3,2.8
	C1680.4,816.2,1679.4,815.3,1678.4,814.4z M1698.5,816.3c-1.5-1.3-2.7-2.7-3.3-4.3c1.1,1.5,2.4,2.9,3.7,4.1
	C1698.8,816.2,1698.6,816.3,1698.5,816.3z M1699.6,815.7c-1.6-1.9-3.3-3.7-4.8-5.7c0-0.4,0-0.9,0-1.4c1.8,2.3,3.6,4.6,5.6,6.7
	C1700.1,815.5,1699.9,815.6,1699.6,815.7z M1701,815C1701,815,1701,814.9,1701,815c-2.1-2.4-4.2-4.6-6.2-7c0.1-0.5,0.2-1,0.3-1.5
	c2,2.8,4.2,5.7,6.8,7.9C1701.5,814.6,1701.3,814.8,1701,815z M1702.6,814c-2.4-2.8-5.1-5.3-7.4-8.2c0.1-0.5,0.1-1,0.1-1.5
	c1.2,1.3,2.3,2.6,3.5,4c1.5,1.7,3,3.7,4.7,5.2C1703.2,813.6,1702.9,813.8,1702.6,814z M1704.1,812.9c-1.2-1.8-3-3.4-4.5-5
	s-3.1-3.2-4.6-4.9c-0.4-0.8-1.2-1.4-1.4-2.3c0-0.3,0.1-0.5,0.2-0.8c2,2.1,4.1,4.2,6.1,6.4c1.8,1.9,3.5,3.9,5.5,5.5
	C1705,812.3,1704.5,812.6,1704.1,812.9z M1706.1,811.4c-1.8-2.1-4.1-4-6.1-5.9c-2.1-2-4.2-4.1-6.2-6.2c0.1-0.4,0.2-0.8,0.2-1.2
	c0.1-0.3,0.3-0.5,0.5-0.7c4.1,4.5,8.3,8.9,12.7,13C1706.9,810.8,1706.5,811.1,1706.1,811.4z M1708.1,809.7c-4.3-4.3-8.7-8.5-13-12.8
	c0.5-0.4,1-0.7,1.6-0.9c3.8,4.1,7.5,10.1,12.8,12.4C1709,808.9,1708.5,809.3,1708.1,809.7z M1710.9,806.8c-0.3,0.4-0.7,0.7-1,1.1
	c-2.4-1.9-4.7-3.6-6.8-5.8c-1.9-2.1-3.8-4.2-5.9-6.2c0.8-0.2,1.7-0.1,2.4-0.5c3.5,3.9,7,7.7,10.8,11.2c0.1,0.1,0.3,0.1,0.4,0.1
	C1711,806.7,1711,806.7,1710.9,806.8z M1711.4,806.2c0-0.1,0-0.2-0.2-0.3c-3.7-3.6-7.5-7.1-11.1-10.7l0.1-0.1c0.6,0,1.1,0,1.7,0
	c0.5,0,0.9-0.1,1.3-0.2c2.7,3.5,5.8,7.2,9.1,10.1C1712.1,805.4,1711.7,805.8,1711.4,806.2z M1712.9,804.2c-2.7-3.3-5.9-6.5-9-9.5
	c1-0.2,1.9-0.5,2.8-0.9c0,0.1,0,0.1,0.1,0.2c1.3,1.4,2.5,2.8,3.8,4.2c1.1,1.2,2.2,2.7,3.6,3.7c0.1,0.1,0.2,0.1,0.2,0.1
	C1714,802.7,1713.5,803.5,1712.9,804.2z M1714.8,801.4L1714.8,801.4c-0.9-1.5-2.4-2.6-3.6-3.8c-1.3-1.3-2.7-2.6-4.1-3.9l0,0
	c0.7-0.3,1.4-0.6,2.1-1c1.2,1.1,2.4,2.3,3.5,3.4c1.1,1.1,2,2.4,3.2,3.3C1715.6,800.1,1715.2,800.8,1714.8,801.4z M1716.3,798.7
	c-0.8-1.2-2-2.2-3-3.2c-1.1-1.1-2.3-2.1-3.5-3.1c0.5-0.2,1.1-0.5,1.7-0.7c0,0,0,0.1,0.1,0.1c0.9,1.1,2,2.1,3,3.1
	c0.8,0.8,1.6,1.7,2.5,2.4C1716.7,797.8,1716.5,798.3,1716.3,798.7z M1717.3,796.6c-0.7-0.8-1.5-1.5-2.3-2.2c-1-1-2-1.9-3-2.8
	c0.1,0,0.2-0.1,0.2-0.1c0.6-0.2,1.2-0.3,1.8-0.3c1.3,1.2,2.6,2.6,4.1,3.6l0,0C1717.8,795.4,1717.6,796,1717.3,796.6z M1718.3,794.1
	c-1-1.1-2.2-2-3.4-3c0.8,0,1.5,0,2.2,0c0.1,0.1,0.1,0.1,0.2,0.2c0.2,0.2,0.5,0.4,0.7,0.6c0.3,0.3,0.5,0.6,0.8,0.9
	C1718.6,793.3,1718.5,793.7,1718.3,794.1z M1719.1,791.9c-0.2-0.2-0.5-0.4-0.7-0.5s-0.3-0.3-0.5-0.4c0.7-0.1,1.3-0.4,1.8-1
	C1719.5,790.7,1719.3,791.3,1719.1,791.9z M1720,788.5c-0.2-0.1-0.6-0.1-0.8,0.2c-1.2,1.6-5.6,0.9-7.5,1.6c-2.4,0.9-4.5,2.5-7.1,3.1
	c-3.9,1-10-0.9-12.7,3.2c-0.7,1.1-0.9,2.2-0.5,3.4c0.3,0.9,0.7,0.9,1.2,1.7c1.7,2.9,1.2,3.3,0.9,6.1c0,0.3-0.1,0.6-0.1,1
	c-0.2,0-0.4,0.2-0.2,0.4c0.1,0.1,0.2,0.3,0.3,0.4c0.1,3,1.4,5.7,4.2,7.1c-0.1,0.1-0.2,0.1-0.4,0.2c-4.4,2.2-9.8,4.8-14.9,5.4
	c-0.1-0.2-0.2-0.3-0.4-0.2c0.6-0.1,0.5-6.3-0.2-7.4c-0.7-1.2-1.4-1-2.5-1.5c-2.9-1.3-2.4-1.8-3.9-3.8c-0.4-0.5-0.9-1.1-1.5-1.4
	c-1.5-1-3.1-1-4.7-0.2c-2.5,1.1-3.2,3.7-6.3,3.6c-1.9,0-3.7-0.9-5.6,0.3c-0.3,0.2-0.5,0.3-0.7,0.5l0,0c-2.8,2.4,0.9,5.9,2.1,8.2
	c0.2,0.3,0.8,0.1,0.6-0.3c-0.5-1.2-1.5-2.2-1.9-3.4c-0.2-0.6-0.4-1-0.5-1.5c1.6,2.2,3.5,4.5,5.6,6.1c-5.4-0.9-10.6-2.3-15.6-4.7
	c-0.7-0.3-1.4-0.7-2.1-1.1c0.1-0.1,0.2-0.2,0-0.4c-3.7-3.5-7.3-6.9-10.7-10.7c-3.2-3.6-6-7.6-8.9-11.4c-0.4-1-0.7-2.1-1-3.1
	c6.5,8.6,14,16.7,22.3,23.5c-0.4,0.6-0.9,1.1-1.5,1.7c-0.3,0.2,0.1,0.6,0.3,0.5c8.3-4.9-1.1-12.4-3.2-18.9c0.1-0.1,0-0.3-0.1-0.4
	l0,0c-0.3-1.2-0.3-2.3,0.1-3.4c0.1,0,0.1,0.1,0.2,0.2c0.3,0.3,0.8-0.2,0.5-0.5c-0.1-0.1-0.2-0.2-0.3-0.3c0.5-0.8,1.2-1.7,2.4-2.4
	c2.4-1.6,5.2-2.4,7.8-3.5c1.2-0.5,3.3-1,4-2.1c0.7-1,0.6-2.2,0-3.2c-0.9-1.6-3.3-1.6-4-2.8c-1.5-2.5,3.6-3,4.6-4.3
	c0.6-0.8,0.8-1.7,0.7-2.7c-0.3-4.8-8.6-5.9-8.7-10.2c0.2-0.1,0.3-0.3,0.1-0.5l-0.1-0.1v-0.1c0.4-2,2.7-3.2,3.4-5
	c0.6-1.5,0.2-3-0.6-4.3c-1.1-1.7-2.9-2.5-4.5-3.4c-3.8-2.2-6.1-5.2-6.4-9.6c-0.1-0.7-1.2-0.7-1.2,0c0.1,1.2,0.3,2.4,0.7,3.6
	c-0.9-1-1.8-2-2.7-3c10.1-8.4,24.6-12.9,38.3-12.6c-0.2,0.6-0.3,1.2-0.5,1.8c-0.2,0.1-0.4,0.4-0.2,0.6l0,0c-0.9,3-2.2,5.9-3.8,8.7
	c-1.5,2.6-3.3,5.2-2.9,8.3c0.2,1.9,1.1,3.7,2.9,4.6c1,0.5,2.4,0.1,3.3,0.6c0.9,1.2,1.9,2.4,2.8,3.6c-0.1,0.3-0.1,0.6-0.2,0.9
	c0,0.4-0.3,1.5-0.3,1.9c0,2.1,1.2,3.1,2.8,4.2c1,0.7,1.6,0.9,1.9,2.2c0.1,0.6-0.2,1.4,0,1.9c0.1,0.5,0.2,0.8,0.5,1.1
	c1.8,1.9,6-0.5,7.8-1c1-0.3,2.8-0.8,3.8-0.3c0.8,1.3,1.5,2.5,2.3,3.8c0,0.8-0.2,1.6-0.5,2.3c-0.5,1.8-1.1,3.3-1.2,5.2
	c0,0.4,0.4,0.7,0.8,0.6c2.3-0.6,3.9,1.2,4.2,3.3c0.1,0.7-0.3,1.5-0.3,2.2s-0.1,1.4,0.4,2.1c0.8,1.1,2,1.2,3.3,0.9
	c2.3-0.6,3.7-2.5,5.3-4.1c2.3-2.2,5.1-3.3,8-3.5c0.2,0.1,0.3,0.1,0.5,0c1.2,0,2.5,0.2,3.7,0.6c0.2,0.1,0.3,0,0.5-0.1
	C1721.3,781.9,1720.8,785.3,1720,788.5z M1721.5,777.6c-0.1,0-0.1-0.1-0.2-0.1c-0.5-0.2-1.1-0.3-1.6-0.4c0-0.1,0-0.3-0.1-0.4
	c-6.2-9-13.3-17.5-20.1-26c-6.6-8.2-13.2-16.5-20-24.5c0.9,0.1,1.7,0.1,2.6,0.3c5.4,8.1,11.7,15.7,17.8,23.2
	c6.6,8,13.1,16.7,20.6,23.8c0.3,0.3,0.7,0.1,0.8-0.2C1721.5,774.7,1721.5,776.2,1721.5,777.6z"/>
<path class="st0" d="M1682,792.2c-1-1.1-3.2-2.3-4.5-1.2c0.8-5.5-2.2-11.5-8.6-10.7c-2.3,0.3-4.7,2-4.4,4.6c0.1,1.3,0.9,2.2,1.6,3.2
	c1.3,2.1,1.2,4.1,1.8,6.4c1.2,5.2,10.2,8.4,14.1,4.3C1683.5,796.9,1683.7,794,1682,792.2z M1676.4,787.6c-0.7-1.2-1.7-2.2-2.5-3.3
	c-0.7-0.8-1.3-1.7-2-2.5C1674.8,782.7,1676.1,785,1676.4,787.6z M1671.1,781.5c0.8,1.1,1.5,2.1,2.3,3.2c0.8,1.2,1.6,2.4,2.6,3.4
	c0.2,0.1,0.4,0.1,0.5,0c0,0.6,0,1.2,0,1.7c-2.5-2.7-4.9-5.4-7.2-8.3C1669.8,781.4,1670.4,781.4,1671.1,781.5z M1671,797.1
	c-1.8-1.4-2-3.2-2.3-5.1c1.5,2.2,3.1,4.4,4.9,6.4C1672.7,798.1,1671.6,797.6,1671,797.1z M1674.9,798.8c-0.1,0-0.2,0-0.2-0.1
	c-2-2.6-4.1-5.1-6.1-7.7c-0.1-0.8-0.3-1.5-0.6-2.3c-0.3-0.6-0.9-1.1-1.1-1.8c-0.1-0.2-0.2-0.4-0.3-0.6c1,1.7,2.4,3.2,3.6,4.6
	c2.3,2.8,4.5,5.7,7.1,8.2C1676.5,799.2,1675.7,799.1,1674.9,798.8z M1679.1,799c-0.3,0.1-0.6,0.1-0.8,0.2c0,0,0,0,0-0.1
	c-1.7-2.3-3.8-4.3-5.6-6.5c-2-2.3-4.9-4.9-6.3-7.7c0-0.7,0.2-1.2,0.5-1.7c4,5.2,8.1,10.9,13.1,15.2
	C1679.6,798.5,1679.4,798.7,1679.1,799z M1680.5,797.7c-4.1-5.3-9-10-13.3-15c0.3-0.4,0.8-0.7,1.3-0.9c3.9,5.2,8,10.6,12.7,15
	C1681,797,1680.8,797.4,1680.5,797.7z M1681.7,795.8c-1.2-1.4-2.4-2.8-3.7-4.2l0.1-0.1c0,0,0-0.1,0.1-0.1c0-0.1,0.1-0.1,0.1-0.2
	C1681.3,792.4,1682.5,793.9,1681.7,795.8z"/>
<path class="st1" d="M214.9,299.2c-1.8-4.8-3.7-9.6-5.6-14.3c-1.8-4.5-4.4-8-7.4-11.8c-3.3-4.2-6.5-8.6-10-12.6
	c-2.7-3.1-6.1-3.8-9.8-5.3c-4.4-1.8-6.3-6.5-10.7-8.1c-4.2-1.5-9.5-0.6-13.8-0.4c-6,0.3-11.8,1.3-17.6,2.6c-5.6,1.3-12,2.4-17.1,4.9
	c-2.9,1.4-4.2,3.7-7.4,4.9c-1.2,0.5-2,0.4-3,1.3c-2.8,2.6-2,7.5-5.6,9.5c-0.1,0-0.1,0-0.2,0.1c-3.7,2.8-6.3,5.4-7.7,9.8
	c-0.7,2.2-1.6,3.7-2.7,5.6c-0.6,1-0.8,1.1-1.1,2.2c-0.4,1.7,0.3,3.4,0.4,5c0.4,4.1-1.5,7.6-1.9,11.6c-0.4,3.8-0.1,7.6,0.1,11.4
	c0.4,5.9,0.9,11.9,2.9,17.5c0.9,2.4,2,4.8,3.5,6.9c1,1.4,2,2.5,2.8,3.9c1,1.7,0.8,3.5,1.6,5.1c0.7,1.4,1.9,1.8,3.1,2.8
	c2,1.5,1.8,3.6,3.2,5.3c0.8,1,2.1,1.4,3.4,1.7c1.1,0.3,2.4,0.3,3.4,0.8c2.1,1,2.2,2.9,3.1,4.6c1.7,3,5.5,2.8,8.4,2c0,0,0,0,0.1,0
	l0,0c6.9,6.1,15.9,7,24.7,5.8c4.5-0.6,10.3-1.2,14.4-3.2c2.7-1.4,3.9-3.6,7.3-4.2c2-0.4,4.1-0.2,6.2-0.6c4.3-0.8,8.5-2.4,12.3-4.8
	c1.6-1,3.1-2.1,4.6-3.4c0.7-0.6,1.4-1.2,2-1.9c1.8-1.8,3.4-2.8,5.5-4.2c7.1-4.6,9-14.8,10.1-22.6
	C217.5,317.8,218.3,308.5,214.9,299.2z M216,315.6c-0.6,9.4-1.3,19.5-5.8,28.1c-1.1,2.1-2.6,4.1-4.7,5.3c-1.7,1-2.8,1.4-4.3,2.8
	c-3.3,3.3-6.6,6.2-10.8,8.2c-5.1,2.5-9.9,2.8-15.4,3.6c-4,0.5-6.3,4.3-10.3,5.2c-11.4,2.8-25,5-34.6-3.4c-0.4-0.3-0.8-0.2-1.1,0.1
	c0,0-0.1,0-0.2,0c-0.9,0.1-2.4,0.4-3.3,0.2c-1.4-0.9-2.7-1.8-4.1-2.7c-0.1-0.7-0.4-1.5-0.7-2.1c-0.4-0.6-0.8-1.1-1.4-1.5
	c-1.2-0.9-2.8-1-4.2-1.4c-0.8-0.2-1.6-0.3-2.3-0.7c-1.5-0.8-1.3-2.3-2-3.5c-0.6-1-1-1.7-2-2.4c-2.2-1.7-3-3.5-4-6
	c-1-2.4-2.4-3.8-3.9-5.9c-1.7-2.4-2.9-5.1-3.8-7.9c-1.6-5.4-2-11.1-2.4-16.7c-0.2-3-0.4-6-0.2-9c0.2-3.5,1.7-6.6,2.1-10.1
	c0.2-1.7-0.1-3.1-0.3-4.7c-0.5-3.3,1.7-4.8,3-7.4c1.1-2.1,0.6-4.6,1.9-6.8c1.5-2.4,3.8-4.1,5.9-5.8c0.3-0.2,0.3-0.5,0.1-0.8
	c1.7-1,2.5-2.6,3.3-4.5c0.4-1,0.9-2.3,1.5-3.3c1.6-2.3,3.5-1.5,5.6-2.6c1.1-0.6,1.7-1.5,2.6-2.3c2.3-2.3,5-2.9,7.9-3.7
	c5-1.4,10-2.8,15.1-3.9c4.9-1,9.8-1.6,14.8-1.9c5.2-0.2,11.7-1.3,15.7,2.6c2.1,2.1,3.6,4.2,6.4,5.4c1.9,0.8,3.9,1.3,5.7,2.1
	c2.5,1.1,4.1,2.6,5.8,4.7c6.4,7.9,13.2,15.4,17.1,24.9C212.7,297.1,216.6,305.6,216,315.6z"/>
<path class="st0" d="M122.9,352.8c-0.5,0.4-1.1,0.7-1.8,0.5c-0.5-0.2-0.8-0.6-1-1c0.1,0,0.2,0.1,0.3,0.1c0.1,0.1,0.3-0.1,0.1-0.2
	c-0.2-0.1-0.5-0.3-0.7-0.5c-0.1-0.1-0.4-0.1-0.4,0.1c-0.5,2.2,2.9,3.2,4,1.4C123.6,352.9,123.2,352.6,122.9,352.8z"/>
<path class="st0" d="M122.9,349.8c-0.3,0.1-0.1,0.5,0.2,0.4c0.6-0.1,1.1,0.2,1.4,0.6s0.4,0.9,0.3,1.4s0.6,0.9,0.9,0.4
	C126.7,350.9,124.5,349,122.9,349.8z"/>
<path class="st0" d="M129.1,355c-1.2-0.6-2.6,0.1-3,1.4c-0.2,0.7,0.9,1,1.1,0.3c0.2-0.5,0.8-0.9,1.4-0.6c0.5,0.3,0.5,1,0.3,1.4
	c-0.2,0.5,0.4,1.1,0.9,0.7C130.5,357.2,130.2,355.6,129.1,355z"/>
<path class="st0" d="M107.8,302.5c-0.6,0.7-0.9,1.8-2.1,1.8c-1.1,0-1.9-1.6-0.6-2.1c0.3-0.1,0.1-0.5-0.2-0.5
	c-1.7,0.4-1.6,2.6-0.2,3.3c1.5,0.7,3.9-0.5,3.8-2.3C108.5,302.5,108.1,302.2,107.8,302.5z"/>
<path class="st0" d="M104.3,295.2c-1.4-0.1-2.5,0.9-2.6,2.3c0,0.4,0.5,0.4,0.6,0.1c0.2-0.9,1.1-1.6,2-1.5c1,0.2,1.1,1,1.4,1.8
	c0.1,0.4,0.6,0.4,0.8,0C106.9,296.6,105.5,295.3,104.3,295.2z"/>
<path class="st0" d="M111.7,294.4c-0.8-0.6-1.9,0.3-2.3,0.9c-0.5,0.7-0.6,1.7-0.1,2.5c0.2,0.3,0.6,0,0.4-0.3c-0.3-0.6,0-1.3,0.4-1.8
	s1-0.4,1.5-0.7C112,294.9,111.9,294.6,111.7,294.4z"/>
<path class="st0" d="M126.2,306.3c-0.2,0-0.4,0.2-0.4,0.4c0,0.3,0.3,0.6-0.2,0.7c-0.4,0.1-0.9-0.5-1.1-0.8c-0.3-0.4-0.8,0.2-0.5,0.5
	c0.5,0.6,1.4,1.4,2.2,0.9c0.3-0.2,0.5-0.5,0.6-0.9C126.9,306.7,126.6,306.3,126.2,306.3z"/>
<path class="st0" d="M130.8,304.5c-0.9-0.8-2.4-0.9-3.5-0.3c-0.4,0.2,0,0.7,0.3,0.5c0.9-0.5,2-0.2,2.6,0.6c0.2,0.3,0.4,0.8,0.4,1.2
	c0,0.4-0.2,0.7-0.1,1.1c0,0.4,0.5,0.6,0.8,0.3C132.2,307.2,131.6,305.3,130.8,304.5z"/>
<path class="st0" d="M133.8,260.1c-0.4,0.4-0.9,0.9-1.5,0.6s-0.6-1.2-0.2-1.6c0.4-0.4-0.2-1-0.6-0.6c-0.9,0.8-0.8,2.4,0.3,3.1
	c0.9,0.6,3,0.2,2.9-1.2C134.5,260,134.1,259.9,133.8,260.1z"/>
<path class="st0" d="M141.2,256.8c-1.8-1.8-4.6-1.2-6.2,0.6c-0.2,0.2,0.1,0.5,0.3,0.3c1.5-1.4,3.7-1.1,5.3-0.2
	C141.1,257.8,141.5,257.2,141.2,256.8z"/>
<path class="st0" d="M143.9,263.6c-0.9,0.3-1.7,0.5-2.6,0c-0.9-0.6-1.3-1.7-1-2.7c0.1-0.3-0.3-0.4-0.4-0.1c-0.5,1.2-0.2,2.7,0.8,3.6
	c1,0.8,2.7,1,3.6,0C144.6,264,144.3,263.5,143.9,263.6z"/>
<path class="st0" d="M167,289.4c-1.5-0.6-3.1-0.2-4.2,0.9c-0.2,0.2,0.1,0.6,0.3,0.4c1-0.7,2.4-1,3.5-0.4c1.2,0.6,1.4,1.6,1.8,2.8
	c0.1,0.3,0.7,0.4,0.8,0C169.6,291.6,168.4,290,167,289.4z"/>
<path class="st0" d="M181.6,266.8c-0.7,0-1.4,0.2-2-0.4s-0.5-1.3-0.3-2.1c0.1-0.4-0.4-0.6-0.6-0.4c-0.8,0.8-0.7,2.3,0.1,3.2
	c0.7,0.8,2.3,1.3,3.2,0.4C182.2,267.3,182.1,266.8,181.6,266.8z"/>
<path class="st0" d="M186.1,264.7c-0.7-0.8-1.8-1-2.7-0.5c-0.4,0.2-0.1,0.8,0.3,0.7c0.6-0.1,1.3,0.1,1.7,0.7
	c0.3,0.5,0.2,1.1,0.1,1.7c-0.1,0.4,0.5,0.5,0.8,0.3C187,266.8,186.7,265.4,186.1,264.7z"/>
<path class="st0" d="M189.6,270.9c-0.5-0.8-1.8-0.9-2.7-0.7c-1,0.2-1.9,0.8-2.4,1.7c-0.3,0.5,0.4,0.8,0.7,0.4c0.5-0.7,1.2-1,2-1.1
	c0.7-0.1,1.3,0.3,2,0.4C189.5,271.5,189.7,271.1,189.6,270.9z"/>
<path class="st0" d="M195.3,328.2c-0.3,0.5-0.9,1-1.6,0.8c-0.7-0.2-0.9-1.1-0.7-1.7c0.1-0.4-0.4-0.6-0.6-0.3c-0.5,1-0.2,2.3,0.9,2.8
	c1,0.4,2.6-0.1,2.7-1.3C196.1,328.1,195.5,327.8,195.3,328.2z"/>
<path class="st0" d="M197,321c-0.6,0.4-1.1,0.9-1.9,1c-0.9,0.2-1.8,0-2.5-0.6c-0.4-0.3-0.9,0.2-0.5,0.5c1.4,1.2,4.5,1.5,5.4-0.5
	C197.6,321.2,197.3,320.8,197,321z"/>
<path class="st0" d="M201.1,323.9c-0.6-0.2-1.3-0.2-1.9,0c-0.3,0.1-0.6,0.3-0.8,0.5c-0.2,0.3,0,0.7,0,1c0,0.2,0.3,0.3,0.4,0
	c0.1-0.5,0.2-0.8,0.8-0.9c0.4-0.1,0.9-0.1,1.3,0.1c0.8,0.4,1.1,1.3,0.9,2.1c-0.1,0.4,0.5,0.6,0.6,0.2
	C202.9,325.8,202.3,324.4,201.1,323.9z"/>
<path class="st0" d="M179.2,359.4c-0.1-0.4-0.7-0.4-0.7,0c-0.4,2-2.6,0.9-3.7,0.2c-0.2-0.1-0.4,0.1-0.2,0.3c0.8,0.8,1.8,1.7,3.1,1.5
	C178.6,361.1,179.4,360.4,179.2,359.4z"/>
<path class="st0" d="M173.9,356.2c-1.8-0.5-3,2-2.1,3.4c0.2,0.3,0.7,0,0.5-0.3c-0.6-1.2,0.5-2.3,1.6-2.5
	C174.3,356.8,174.2,356.3,173.9,356.2z"/>
<path class="st0" d="M178.4,353.1c-0.4,0.3-1,0.4-1.4,0s-0.3-1.1,0.2-1.4c0.2-0.2,0-0.6-0.2-0.4c-0.8,0.4-1.1,1.6-0.5,2.3
	c0.6,0.8,1.9,0.7,2.4-0.1C179.1,353.1,178.7,352.9,178.4,353.1z"/>
<path class="st0" d="M164,327.4c-0.9-0.2-1.8,0-2.4,0.7c-0.2,0.2,0.1,0.6,0.4,0.4c0.5-0.5,1.3-0.6,2-0.3c0.7,0.2,0.9,0.7,1.3,1.2
	c0.2,0.2,0.6,0,0.6-0.2C165.8,328.2,164.9,327.5,164,327.4z"/>
<path class="st0" d="M160.9,329.4c-1.2,1.4-3.1,1.3-4.4,0.1c-0.3-0.3-0.8,0.1-0.5,0.4c1.2,1.9,4.2,1.6,5.4-0.1
	C161.6,329.5,161.1,329.2,160.9,329.4z"/>
<path class="st0" d="M158.6,323.9c-0.2-0.1-0.5,0.2-0.3,0.4c0.8,0.7,0.8,2-0.2,2.6c-0.3,0.1,0,0.5,0.2,0.4
	C159.6,326.7,159.9,324.5,158.6,323.9z"/>
<path class="st0" d="M159.9,317.2c-1.5-1.4-4-0.6-5,1c-0.2,0.4,0.4,0.7,0.6,0.3c0.9-1.4,2.6-1.5,4-0.8
	C159.9,317.9,160.3,317.5,159.9,317.2z"/>
<path class="st0" d="M191.7,291.4c-0.3-1.1-1.7-1.5-2.7-1c-1.2,0.6-1.4,2.1-0.9,3.3c0.1,0.4,0.7,0.2,0.6-0.2
	c-0.2-0.7-0.1-1.8,0.6-2.2c0.6-0.4,1.4-0.2,1.7,0.4C191.2,292.1,191.8,291.8,191.7,291.4z"/>
<path class="st0" d="M200.2,302.3c-1.7,0.9-4.1,0.5-4.9-1.4c-0.2-0.5-0.9-0.3-0.8,0.2c0.8,2.4,4.1,3.6,6.1,1.8
	C201,302.7,200.6,302.1,200.2,302.3z"/>
<path class="st0" d="M121.7,328c-0.5-0.6-1.4-0.7-2-0.2s-0.7,1.3-0.4,2c0.1,0.3,0.6,0.1,0.5-0.2c-0.4-1,0.8-1.8,1.6-1.1
	C121.7,328.6,122,328.2,121.7,328z"/>
<path class="st0" d="M128.2,331.6c-0.1-0.3-0.5-0.3-0.6,0c-0.1,0.4-0.1,0.6-0.5,0.8c-0.4,0.2-0.8,0.1-1-0.2c-0.1-0.2-0.4,0-0.3,0.2
	C126.4,333.3,128.5,332.9,128.2,331.6z"/>
<path class="st0" d="M873.6,1444.6c-20.5-7.4-37.7-19.8-49.4-38.5c-11.8-18.8-15.4-41.5-14.4-63.4c1-22.2,7.8-44.5,20.4-62.9
	c10.6-15.6,25.5-27.9,42.3-36.3c17.6-8.8,37.2-12.8,56.8-10.9c18.8,1.8,36.4,9.6,51.9,20.1c16,11,29.7,25.3,41.5,40.7
	c6.2,8.1,12.8,15.8,19.2,23.9c6.7,8.6,13.6,17.1,20.8,25.3c14,16,29.3,32,46.7,44.2c7.8,5.5,17.1,9.6,26.7,7.4
	c8.7-2.1,13.6-8.8,13.7-17.5c0.2-8.7-5.3-17.9-9.4-25.2c-4.9-8.7-11-17.9-11.7-28.1c-0.8-11.9,14.1-18,24-18.2
	c10.7-0.2,15.8,9,22.1,15.9c3.2,3.5,9.3,8.8,14.6,7.4c6.1-1.6,8.8-8.3,9.3-14.1c0.7-7.6-2.9-15-2.9-22.6c0-4.6,1.9-9.8,5.9-12.2
	c3.3-2,8.1-0.9,11.7-0.3c0.8,0.1,1.4-0.3,1.4-1.1c0.1-0.8,1.6,1.2,1.5,0.4c-0.1-1.5-3.1-1.9-3-1c0.1,0.8-0.7-0.2-0.8,0.6
	c0.5-0.4,1.3-0.7,1.8-1c-7.1-1.2-14.1-1.6-18.3,5.1c-4.9,7.8-1.5,17.5-0.1,25.8c1,5.7,0.4,11.3-3.4,15.9c-4.4,5.3-11.1,0.5-14.8-3
	c-6-5.7-9.7-13.5-17.7-16.8c-7.3-3-17.1-0.7-23.6,3.3c-3.4,2.1-6.3,4.7-8.5,8.1c-2.4,3.7-1.7,8.9-0.8,12.9
	c2.1,9.1,7.3,17.1,11.8,25.1c4.8,8.4,10.6,19,7.7,29c-1.7,6.1-8.7,9.3-14.6,10c-6.1,0.7-12.1-2-17.2-4.9
	c-9.7-5.5-18.2-13.7-26.4-21.4c-15.9-14.9-30-31.5-43.5-48.5c-3.5-4.5-7-9-10.5-13.6c-1.5-2-3.7-3.4-5.2-5.5
	c-1.5-2.2-3.1-4.3-4.8-6.5c-5.6-7.4-11.6-14.4-18.1-21c-12.7-13-27.5-24.2-44.2-31.8c-34-15.5-72.4-11-103.4,9.2
	c-34,22.2-51.4,60.9-51.6,100.9c-0.1,21.5,5,42.9,17,60.9c11.7,17.6,29,29.2,48.7,36.3C874.3,1447.3,874.9,1445.1,873.6,1444.6z"/>
<path class="st0" d="M924.7,1410.6c-16.2,1.3-33,6.4-43.9,19.2c-4.1,4.8-6.9,10.7-8.1,17c-0.9,4.8-1.5,9.6,3.7,11.7
	c6.2,2.5,11-0.8,13.8-6.3c3.4-6.8,6.2-14.7,14.4-16.7c3.5-0.8,2.3,4.4,2.2,6.4c0,2.3,0,4.7,0.2,7c0.3,4.9,1,9.8,2.2,14.6
	c2.1,8.6,6.5,16.1,12.3,22.7c5.7,6.5,12.8,11.5,20.4,15.6c3.8,2,7.7,3.8,11.7,5.3c5,2,10.6,2.9,15.4,5.1c4.5,2.2,1.1,9-0.5,11.8
	c-1.7,3-3.9,6.8-3,10.5c1,4,7.8,9.8,12.1,7.4c2.4-1.3,2.3-3.5,1.8-6c-0.8-4.2,5.4-8.2,8.1-10.8c5.1-5.1,9.5-11.6,7.5-19.1
	c-0.8-3.2-3-5.8-4.1-8.8c-0.9-2.4,0-4.5,1.6-6.4c3.5-4.4,6.6,1.6,7.7,4.1c3.1,6.7,5.5,13.7,8.6,20.4c1.3,2.9,3.6,7.1,7.4,6.3
	c4.5-1,8.8-3.8,10.7-8.1c0.5-1.1,0.9-2.9,0.3-4c-1.2-2-3.8-1.2-5.3-2.3c-1.8-1.4-2.3-4.8-2.7-6.8c-0.6-3.1,0.5-6.7,0.4-9.9
	c-0.2-6.2-2.3-11.9-4.8-17.5c-2.6-5.8-5.1-11.6-8.2-17.2c-3.5-6.3-7-13.3-11.5-18.9c-4.4-5.5-10-9.7-14.7-14.9
	c-0.7-0.8-1.9,0.4-1.2,1.2c3.3,3.7,7.1,6.9,10.7,10.4c4.4,4.3,7.3,9.5,10.5,14.7c5.1,8.6,9.4,17.3,13.5,26.4
	c2.3,5.2,3.8,10.1,4.1,15.8c0.3,4.2-0.9,8,0.1,12.1c0.5,1.9,1.4,5.1,3.3,6.2c0.5,0.3,1.4,0.3,1.8,0.4c2.3,0.3,2.9,2.4,2,4.3
	c-1.1,2.5-3.7,4.2-6.1,5.4c-3.2,1.7-5.5,0.9-7.5-2.2c-0.7-1.1-1.2-2.3-1.8-3.5c-1.7-3.9-3.3-7.9-4.9-11.8
	c-1.8-4.3-4.3-14.3-10.3-13.9c-2.6,0.2-4.5,3.4-5.3,5.5c-1,2.5,0.3,5.3,1.4,7.4c2.2,4.1,3.9,7.6,2.8,12.4c-1.1,4.7-4.5,8.4-7.9,11.7
	c-2.5,2.5-6,5-7.8,8.1c-0.5,0.8-0.2,1.9-0.1,2.8c0.2,1.6,1.5,4.8-1.9,5.1c-1.5,0.1-3.1-0.8-4.4-1.5c-9.8-5.6,1.1-14.6,1.6-22
	c0.1-2.2-0.3-4.7-2.3-6c-3.7-2.4-8.9-3-13.1-4.5c-9.4-3.3-18.4-7.8-26.2-13.9c-7.2-5.6-13.3-12.7-17.2-21
	c-4.5-9.5-5.6-20.7-5.4-31.1c0-2.3,0.7-5.7-1.8-7c-2.2-1.2-6.8,1.6-8.4,2.8c-5.3,3.8-7.4,10.6-10.3,16.1c-2.1,3.9-5.6,5.8-9.9,4.7
	c-3.6-0.9-4.3-3-4.2-6.4c0.3-6.6,2.9-12.8,6.7-18.1c9.9-13.8,28-19.2,44.1-20.5C925.8,1412.2,925.8,1410.5,924.7,1410.6z"/>
<path class="st0" d="M990.9,1434.6c10.7,2.9,19-1.6,24.8-10.7c3.3-5.1,11.7-19,2.1-22.6c-3.9-1.4-6.6,3.4-7.9,6.2
	c-2.1,4.5-3.5,11.2-8.8,12.9c-4.3,1.4-9.4-2.1-13.1-4.1c-3.4-1.7-6.7-3.5-10.1-5.3c-0.6-0.3-1.2,0.6-0.6,1
	c5.4,2.9,10.9,5.9,16.4,8.5c7.7,3.6,12.4-1.4,15.2-8c1.4-3.3,4.7-13.5,9.8-9.5c5.3,4.1,0.3,12.1-2,16.5c-2.3,4.5-5.2,8.7-9.2,11.7
	c-4.8,3.6-10.8,3.7-16.5,2.2C990.5,1433.3,990.2,1434.4,990.9,1434.6z"/>
<path class="st0" d="M1003.7,1376.6c0.7,0,0.7-1.1,0-1.1C1003,1375.4,1003,1376.6,1003.7,1376.6z"/>
<path class="st0" d="M956.2,1393.2c-2,2.1-1.7,1.7-3.1,0.6c0,0-3.4-2-0.7-3.1C954.5,1389.8,958.7,1390.6,956.2,1393.2z"/>
<path class="st0" d="M942.9,1387.4c2.9,0,2.9-4.5,0-4.5C940,1382.8,940,1387.4,942.9,1387.4z"/>
<path class="st0" d="M953.4,1393.8c0.1,0.9-0.2,1.9-0.4,2.7c-0.2,0.9-0.4,1.9-0.8,2.7c-0.4,0.6,0.6,1.2,1,0.6c0.5-0.9,0.7-2,1-3
	c0.2-0.9,0.5-2,0.4-3C954.5,1393.1,953.4,1393.1,953.4,1393.8z"/>
<path class="st0" d="M960.6,1396.9c-3.6,2.7-9.8,5-12.8,0.2c-0.4-0.6-1.4,0-1,0.6c3.3,5.3,10.1,3.3,14.3,0.2
	C961.8,1397.5,961.2,1396.5,960.6,1396.9z"/>
<path class="st0" d="M968,1387.9c2.9,0,2.9-4.5,0-4.5S965.1,1387.9,968,1387.9z"/>
<path class="st0" d="M936.4,1386.4c0.8,0.2,1.5,0.3,2.3,0.1c0.7-0.2,0.4-1.3-0.3-1.1c-0.6,0.2-1.1,0.1-1.7-0.1
	C936,1385.1,935.7,1386.2,936.4,1386.4z"/>
<path class="st0" d="M971.3,1387.7c0.5,0,1,0,1.4-0.1c0.7-0.2,0.4-1.3-0.3-1.1c-0.4,0.1-0.8,0.1-1.1,0.1
	C970.6,1386.5,970.6,1387.6,971.3,1387.7z"/>
<path class="st0" d="M921,1354.4c-4.2,0.5-9.5-3.6-12.7,1.1c-3.1,4.4,1.1,8.4,5.2,9.9c1.4,0.5,2-1.7,0.6-2.2
	c-1.7-0.6-3.2-1.6-4.2-3.1c-1.4-2.2,0.8-4.5,3-4.6c2.8-0.1,5.3,1.6,8.1,1.2C922.4,1356.5,922.4,1354.2,921,1354.4z"/>
<path class="st0" d="M983.3,1362.2c1.2,0.1,2.1-0.5,3.2-0.9c1.4-0.6,3.4,0.2,4.1,1.5c0.7,1.3-0.8,4.9-2.5,4.6c-1.4-0.2-2,2-0.6,2.2
	c3.3,0.5,5.8-3.3,5.6-6.3c-0.2-1.9-1.6-3.4-3.3-4c-1.2-0.4-2.3-0.5-3.6-0.3c-1,0.2-1.8,1-2.9,0.9
	C981.8,1359.9,981.8,1362.2,983.3,1362.2z"/>
<path class="st0" d="M890.1,1452.9c5.3,1.2,12,2,17.3,0.4c1.4-0.4,0.8-2.6-0.6-2.2c-4.9,1.5-11.2,0.8-16.1-0.4
	C889.3,1450.4,888.7,1452.6,890.1,1452.9z"/>
<path class="st0" d="M959.6,1395.4c0.3,1.7,1.3,3.4,3.1,3.8c0.7,0.2,1-0.9,0.3-1.1c-1.4-0.3-2-1.7-2.3-3
	C960.6,1394.4,959.5,1394.7,959.6,1395.4z"/>
<path class="st0" d="M910.1,1382.9c1,14.2,8.1,26.6,20.6,33.7c11.4,6.4,25.7,6.9,37.8,1.9c14.4-6,21.3-20.5,21.3-35.5
	c0-7.8-2-16.1-6.6-22.5c-4.4-6.2-11.4-10.1-18.4-12.6c-12.6-4.4-27-4-38.6,2.9c-5.9,3.5-10.7,8.7-13.6,14.8
	C910.1,1371,909.8,1377.1,910.1,1382.9c0,1.1,1.8,1.1,1.7,0c-0.4-9,1.3-17.1,7.3-24c6.3-7.3,15.8-11.4,25.3-12
	c9-0.6,18.3,1.3,26.3,5.4c8.6,4.4,13.8,11.6,16.1,20.8c4.4,17.4-2.5,37-19.6,44.1c-13.2,5.5-29,3.3-40.5-5.1
	c-9.3-6.8-14.2-17.8-15-29.1C911.7,1381.8,910,1381.8,910.1,1382.9z"/>
<path class="st0" d="M918.2,1427.6c9.1,5.1,18.9,8.6,29.4,9.3c9.9,0.6,19.7-1.9,28.6-6c15.3-7,26.4-19.3,30.2-35.8
	c3.9-16.7,1.8-34.3-8.2-48.4c-10.2-14.4-27.3-23.5-44.6-25.6c-15.1-1.9-30,3.3-41.9,12.4c-12,9.2-19.2,22.4-22.5,37
	c-5,21.9,7.3,45.8,26.2,56.8c1,0.5,1.8-0.9,0.9-1.5c-14.7-8.6-23.9-23.5-26-40.2c-2.1-16.1,5.2-34.5,16.7-45.7
	c15.7-15.3,37.1-21.1,58.2-14.6c18.8,5.8,34.8,20.4,39.9,39.7c2.6,9.8,1.9,20.9-0.4,30.7c-2.2,9.3-7,17.5-14,24
	c-8.7,8-20.5,13.2-32.1,15.1c-13.8,2.3-27.5-1.8-39.4-8.5C918.1,1425.5,917.2,1427,918.2,1427.6z"/>
<path class="st0" d="M954.8,1432.7c1.1,0,1.1-1.7,0-1.7S953.7,1432.7,954.8,1432.7z"/>
<path class="st0" d="M954.7,1431c-0.1-0.3-0.2-0.3-0.1-0.2c0-0.1,0-0.1,0,0s0,0.3,0,0.4c0-0.2,0,0.2,0,0.2c0,0.1,0,0.3-0.1,0.4
	c0,0.4,0.3,0.7,0.6,0.8c0.3,0.1,0.5,0.2,0.8,0.3c0.4,0.1,0.9-0.2,1-0.6c0.1-0.5-0.2-0.9-0.6-1c-0.3-0.1-0.5-0.2-0.8-0.3
	c0.2,0.3,0.4,0.5,0.6,0.8c0,0,0-0.2,0,0c0-0.1,0-0.2,0-0.2c0-0.2,0.1-0.4,0.1-0.7c0-0.5-0.1-0.9-0.4-1.2c-0.3-0.4-0.9-0.3-1.2,0
	C954.3,1430.1,954.4,1430.6,954.7,1431z"/>
<path class="st0" d="M963.1,1447.1c1.1,0,1.1-1.7,0-1.7S962,1447.1,963.1,1447.1z"/>
<path class="st0" d="M969.8,1455.9c0.7,0.7,1.7,0.2,1.8-0.7c0.1-0.7,0.1-1.8-0.7-2c-0.1,0.6-0.2,1.1-0.2,1.7c0.3,0,0.4-0.1,0.6-0.3
	c0.3-0.2,0.3-0.7,0.1-1c-0.2-0.4-0.8-0.6-1.3-0.7c-0.6-0.1-1.4-0.1-1.6,0.6c-0.1,0.4,0.1,0.8,0.2,1.2c0.1,0.2,0.1,0.5,0.2,0.7
	c0.2,0.4,0.4,0.7,0.6,1c0.4,0.6,1.4,0.6,1.6-0.2c0.1-0.5,0.2-1,0.3-1.5c0.1-0.4,0-0.8-0.4-1c-0.5-0.2-1.1-0.4-1.6-0.2
	c-0.8,0.3-1,1.1-0.5,1.8c0.6,0.9,2,0.1,1.5-0.9c-0.1-0.2-0.1-0.1,0,0.1c-0.1,0.2-0.3,0.4-0.4,0.6c0.1,0,0.1,0,0,0c0.2,0-0.1,0,0.1,0
	c0,0,0.3,0.1,0.1,0c-0.1-0.3-0.3-0.6-0.4-1c-0.1,0.5-0.2,1-0.3,1.5c0.5-0.1,1-0.1,1.6-0.2c-0.2-0.3-0.4-0.6-0.6-0.9
	c-0.1-0.2,0.1,0.2,0,0c0-0.1-0.1-0.2-0.1-0.2c-0.1-0.3-0.2-0.6-0.3-0.9c0,0.2,0,0.3,0,0.5l0,0c-0.1,0.1-0.1,0.3-0.2,0.4
	c-0.5,0.2-0.6,0.2-0.4,0.2c0.1,0,0.1,0,0,0c0.1,0,0.3,0.1,0.4,0.1c0.1,0,0.2,0.1,0.3,0.1c0.2,0.1-0.1-0.1,0,0
	c-0.1-0.1-0.2-0.2-0.3-0.3l0,0c0-0.3,0.1-0.7,0.1-1l0,0c0.2-0.1,0.4-0.2,0.6-0.3l0,0c-0.4,0-0.7,0.2-0.8,0.6s0.1,1,0.6,1.1
	c-0.6-0.1-0.5-0.7-0.5-0.3c0-0.2,0,0.1,0,0.1c0,0.1,0,0.4,0,0.1v0.1v-0.1c-0.2,0.3,0.1,0.3,1-0.1
	C970.2,1454,969,1455.2,969.8,1455.9z"/>
<path class="st0" d="M876,1440.8c6.2-0.5,12.5,3.1,16.3,7.8c0.7,0.8,1.9-0.4,1.2-1.2c-4.1-5-10.9-8.9-17.5-8.3
	C875,1439.2,875,1440.9,876,1440.8z"/>
<path class="st0" d="M1008.5,1409.8c2.3,4.1,7.7,7,12.3,6c1.1-0.2,0.6-1.9-0.5-1.7c-3.9,0.8-8.5-1.8-10.4-5.2
	C1009.5,1408,1008,1408.9,1008.5,1409.8z"/>
<path class="st0" d="M968,1523.2c4.6,3.4,11.1,3.6,14.1,9c0.5,1,2,0.1,1.5-0.9c-3.2-5.8-9.7-6-14.7-9.6
	C967.9,1521.1,967.1,1522.6,968,1523.2z"/>
<path class="st0" d="M1008.6,1516.8c4.6-3.9,10.3-6.5,14.6-10.8c0.8-0.8-0.4-2-1.2-1.2c-4.3,4.4-10,6.9-14.6,10.9
	C1006.6,1516.3,1007.8,1517.5,1008.6,1516.8z"/>
<path class="st0" d="M927.1,1489.8c7.5,0.1,13.8-3.8,20.6-6.5c0.7-0.3,0.4-1.4-0.3-1.1c-6.6,2.6-12.9,6.5-20.3,6.4
	C926.4,1488.7,926.4,1489.8,927.1,1489.8z"/>
<path class="st0" d="M958,1479.2c1.5-0.5,3-1.1,4.5-1.5c0.7-0.2,0.4-1.3-0.3-1.1c-1.5,0.4-3,1-4.5,1.5
	C957,1478.4,957.3,1479.5,958,1479.2z"/>
<path class="st0" d="M974.8,1472.8c1.1,0,2-0.4,2.9-0.8c0.7-0.3,0.1-1.3-0.6-1c-0.8,0.4-1.5,0.7-2.4,0.7
	C974.1,1471.7,974.1,1472.8,974.8,1472.8z"/>
<path class="st0" d="M986.5,1467.1c1.2-0.8,2.4-1.4,3.9-1.4c0.7,0,0.7-1.2,0-1.1c-1.6,0.1-3.1,0.7-4.5,1.6
	C985.3,1466.5,985.9,1467.5,986.5,1467.1z"/>
<path class="st0" d="M996.2,1463.3c4.2-0.8,7.9-2.7,11.5-5c0.6-0.4,0-1.4-0.6-1c-3.5,2.3-7.1,4.1-11.2,4.9
	C995.2,1462.4,995.5,1463.5,996.2,1463.3z"/>
<path class="st0" d="M914.5,1448.8c-0.3,4.4,0.4,8.8,2.3,12.8c0.3,0.7,1.3,0.1,1-0.6c-1.8-3.8-2.5-8-2.2-12.2
	C915.7,1448,914.5,1448,914.5,1448.8z"/>
<path class="st0" d="M919,1467.1c0.8,2.3,1.5,4.5,2.7,6.6c0.4,0.6,1.3,0.1,1-0.6c-1.1-2-1.9-4.1-2.6-6.3
	C919.9,1466.1,918.8,1466.4,919,1467.1z"/>
<path class="st0" d="M925.5,1479.7c0.5,1,0.8,2,1.6,2.8c0.5,0.5,1.3-0.3,0.8-0.8c-0.7-0.7-1-1.7-1.4-2.5
	C926.2,1478.5,925.2,1479.1,925.5,1479.7z"/>
<path class="st0" d="M940.5,1495.1c1.8,1.3,3.8,2.3,5.2,4.1c0.5,0.6,1.3-0.2,0.8-0.8c-1.4-1.8-3.6-2.9-5.4-4.3
	C940.5,1493.6,939.9,1494.6,940.5,1495.1z"/>
<path class="st0" d="M954.5,1502.3c1.2,0.7,2.3,1.5,3.4,2.3c0.6,0.4,1.2-0.6,0.6-1c-1.1-0.8-2.2-1.6-3.4-2.3
	C954.4,1500.9,953.9,1501.9,954.5,1502.3z"/>
<path class="st0" d="M966.2,1506.4c0.9,0.5,1.8,1.1,2.5,1.8c0.5,0.5,1.3-0.3,0.8-0.8c-0.8-0.8-1.8-1.5-2.8-2
	C966.1,1505.1,965.6,1506.1,966.2,1506.4z"/>
<path class="st0" d="M973.4,1511c3.8,2.7,1.8,7.4-0.2,10.6c-0.4,0.6,0.6,1.2,1,0.6c2.4-3.8,4.1-9.1-0.2-12.1
	C973.4,1509.6,972.8,1510.5,973.4,1511z"/>
<path class="st0" d="M1002.3,1485.5c1.1,1.2,1.6,3.3,1.9,4.8c0.1,0.7,1.2,0.4,1.1-0.3c-0.3-1.7-1-4-2.2-5.3
	C1002.6,1484.2,1001.8,1485,1002.3,1485.5z"/>
<path class="st0" d="M978.2,1510.7c1.7,0,3.3-0.5,4.8-1.2c0.7-0.3,0.1-1.3-0.6-1c-1.4,0.7-2.8,1-4.3,1.1
	C977.5,1509.5,977.5,1510.7,978.2,1510.7z"/>
<path class="st0" d="M986.4,1509.6c1.7,0.3,3.6-0.4,5.2-1c0.7-0.3,3.3-1.2,2.8-2.4c-0.3-0.7-1.4-0.4-1.1,0.3c0,0.1-2.4,1.2-2.8,1.3
	c-1.1,0.4-2.6,1-3.8,0.7C986,1508.4,985.7,1509.5,986.4,1509.6z"/>
<path class="st0" d="M1005,1503c0.6-0.3,1.2-0.7,1.8-1c0.7-0.3,0.1-1.3-0.6-1c-0.6,0.3-1.2,0.7-1.8,1
	C1003.8,1502.4,1004.4,1503.4,1005,1503z"/>
<path class="st0" d="M1010,1501.1c0.8,0,1.4-0.4,1.9-0.9s-0.3-1.3-0.8-0.8c-0.3,0.3-0.7,0.6-1.1,0.6
	C1009.3,1500,1009.3,1501.1,1010,1501.1z"/>
<path class="st0" d="M1017.1,1496.8c0.2-0.1,0.3-0.1,0.2-0.2c-0.7-0.2-1,0.9-0.3,1.1c0.5,0.1,1.1-0.1,1.2-0.7
	C1018.3,1496.4,1017.2,1496.1,1017.1,1496.8z"/>
<path class="st0" d="M1014.3,1499.3c0.3,0,0.7-0.2,1-0.3c0.7-0.1,0.7-1.2,0-1.1c-0.3,0-0.7,0.2-1,0.3
	C1013.6,1498.2,1013.6,1499.4,1014.3,1499.3z"/>
<path class="st0" d="M882.9,1437c0.1-2.4,2.3-4.1,4.3-5.2c0.6-0.4,0.1-1.3-0.6-1c-2.3,1.3-4.7,3.3-4.8,6.2
	C881.7,1437.8,882.8,1437.8,882.9,1437z"/>
<path class="st0" d="M890,1429c0.4-0.6,0.9-1,1.5-1.3c0.7-0.3,0.1-1.3-0.6-1c-0.8,0.4-1.4,1-1.9,1.7
	C888.6,1429,889.6,1429.6,890,1429z"/>
<path class="st0" d="M894.4,1426.3L894.4,1426.3c0.1,0,0.1,0,0.2,0c0.7,0,0.7-1.2,0-1.1c-0.7,0-1.3,0.4-1.3,1.1
	C893.2,1427,894.3,1427,894.4,1426.3z"/>
<path class="st0" d="M997.7,1425.9c1.7,0.2,3.6,0,4.8-1.5c0.4-0.6-0.4-1.4-0.8-0.8c-1,1.2-2.5,1.3-4,1.2
	C997,1424.7,997,1425.8,997.7,1425.9z"/>
<path class="st0" d="M1004.7,1422.6c0.9-0.2,1.5-0.8,2.1-1.5c0.5-0.5-0.3-1.3-0.8-0.8s-1,1-1.6,1.2
	C1003.7,1421.7,1004,1422.8,1004.7,1422.6z"/>
<path class="st0" d="M1008.6,1418.8c0.1-0.3,0.3-0.4,0.6-0.6c0.6-0.3,0.1-1.3-0.6-1c-0.4,0.2-0.7,0.5-1,1
	C1007.3,1418.9,1008.3,1419.4,1008.6,1418.8z"/>
<path class="st0" d="M963.1,1448.8c1.4,0,2.5-1.1,2.5-2.5s-1.1-2.5-2.5-2.5s-2.5,1.1-2.5,2.5
	C960.6,1447.6,961.7,1448.8,963.1,1448.8z"/>
<path class="st0" d="M969.9,1457.9c1.4,0,2.5-1.1,2.5-2.5s-1.1-2.5-2.5-2.5s-2.5,1.1-2.5,2.5
	C967.4,1456.7,968.5,1457.9,969.9,1457.9z"/>
<path class="st0" d="M955.1,1433.6c1.2,0,2.2-1,2.2-2.2s-1-2.2-2.2-2.2s-2.2,1-2.2,2.2C952.8,1432.6,953.8,1433.6,955.1,1433.6z"/>
<path class="st2" d="M1210.3,1277.8c20.5,3.5,24.5,23.5,37,23.5c24.7,0-66-128,74-168s474.1-24.5,480-203s-114.5-214.8-166-223
	c-69-11-174,22-192,130s78.6,249.1,207,296c93,34,210,10,227-24"/>
<path class="st0" d="M1644,1242.7c-2.1-1.6-6.9-4.5-6-7.3c0.8-2.5,2.4-4.9,3.2-7.5c0.2-0.5-0.4-1-0.8-0.8c-1.5,0.5-3,1.1-4.5,1.6
	c-1.1,0.4-3.4,1.8-4.5,1.6c-2.4-0.2-5.4-5.2-7-6.9c-0.4-0.4-1-0.1-1.1,0.4c-0.3,3.3-0.4,6.7,0,10c-2.7-1.2-5.4-1.7-8.4-1.5
	c-0.6,0-0.9,0.7-0.5,1.2c1.2,1.2,2.3,2.4,3.6,3.5c0.8,0.8,3.4,2.2,3.8,3.2c0.8,2.1-2.6,6.5-3.6,8.4c-0.3,0.6,0.3,1.3,1,1
	c2.9-1.6,5.7-3.3,8.4-5.1c0.7,2.1,1.5,4.2,2.4,6.3c0.3,0.6,1.1,0.3,1.3-0.2c0.9-2.7,1.8-5.4,2.6-8.2c3.2,1,6.4,1.5,9.7,1.4
	C1644.4,1243.9,1644.5,1243.1,1644,1242.7z M1638.4,1231.4c-0.6-0.5-1.2-1-1.9-1.5c1-0.3,1.9-0.7,2.9-1
	C1639.1,1229.7,1638.7,1230.6,1638.4,1231.4z M1634.5,1230.6c0.4-0.2,0.9-0.3,1.3-0.5c0.7,0.7,1.5,1.3,2.2,1.9
	c-0.2,0.4-0.3,0.8-0.5,1.2C1636.4,1232.4,1635.3,1231.6,1634.5,1230.6C1634.5,1230.7,1634.5,1230.6,1634.5,1230.6z M1633.7,1231
	c1,1.1,2.2,2.2,3.6,2.9c-0.2,0.4-0.4,0.9-0.7,1.3c-0.6-0.5-1.3-0.9-1.9-1.4c-1-0.7-1.9-1.4-2.9-2.1
	C1632.4,1231.5,1633.1,1231.2,1633.7,1231z M1620.5,1247.4c0.3-0.6,0.7-1.3,1-1.9c0.3,0.2,0.6,0.5,0.9,0.7h0.1
	C1621.9,1246.6,1621.2,1247,1620.5,1247.4z M1622.7,1246c0.1-0.1,0.1-0.2,0-0.3c-0.3-0.3-0.6-0.6-0.9-0.8c0.2-0.4,0.4-0.7,0.6-1.1
	c0.3,0.3,0.7,0.6,1,0.9c0.2,0.2,0.4,0.4,0.7,0.5C1623.6,1245.5,1623.2,1245.8,1622.7,1246z M1624.5,1244.9c-0.3-0.2-0.7-0.5-0.9-0.7
	c-0.3-0.3-0.7-0.6-1-0.8c0.2-0.4,0.5-0.8,0.7-1.3c0.8,0.7,1.7,1.4,2.6,1.9C1625.5,1244.4,1625,1244.6,1624.5,1244.9z M1627.6,1243
	c-0.4,0.3-0.8,0.5-1.2,0.8c-0.9-0.7-1.9-1.4-2.9-2.1c0.1-0.2,0.3-0.5,0.4-0.7s0.1-0.6-0.1-0.8c-2.5-2-4.9-4.1-7.2-6.3
	c0.1,0,0.2,0,0.4,0c3.5,3.1,7.1,6.2,10.8,9.1C1627.7,1242.9,1627.6,1242.9,1627.6,1243z M1630.5,1248.5c-0.7-1.7-1.3-3.3-1.8-5
	c0.9,0.7,1.8,1.4,2.8,2.1C1631.1,1246.6,1630.8,1247.6,1630.5,1248.5z M1631.6,1245c-4.4-3.9-9-7.6-13.7-11.2
	c0.6,0.1,1.1,0.2,1.7,0.3c0,0,0,0.1,0.1,0.1c4.1,3.2,8.2,6.5,12.3,9.7C1631.8,1244.3,1631.7,1244.7,1631.6,1245z M1632.2,1243.3
	c-3.6-3.2-7.4-6.1-11.3-8.9c0.8,0.2,1.6,0.5,2.4,0.9c0.4,0.2,0.9-0.1,1-0.4c2.8,2.3,5.6,4.7,8.5,6.9
	C1632.5,1242.3,1632.3,1242.8,1632.2,1243.3z M1633.6,1241c-0.2-0.1-0.4,0-0.6,0.1c-2.9-2.3-5.9-4.6-8.8-7c0-0.1,0-0.1,0-0.2
	c0-0.6,0-1.1,0-1.7c2.1,1.9,4.2,3.6,6.4,5.3c1.8,1.4,3.7,3,5.7,4.2C1635.4,1241.6,1634.5,1241.3,1633.6,1241z M1637.8,1242.1
	c0-0.1,0-0.3-0.1-0.4c-1.9-1.9-4.3-3.4-6.5-5c-2.3-1.8-4.7-3.6-7-5.3c0-0.8,0-1.6,0-2.4c5.1,4.3,10,8.9,15.1,13.3
	C1638.8,1242.3,1638.3,1242.2,1637.8,1242.1z M1640.8,1242.5c-5.2-5.1-10.9-9.7-16.5-14.3c0-0.9,0.1-1.9,0.2-2.8
	c1.1,1.3,2.2,2.5,3.3,3.8c0.7,0.8,1.7,2.4,2.7,2.6c0.1,0,0.2,0,0.3,0c1.1,0.9,2.2,1.8,3.3,2.6c0.6,0.5,1.3,1.1,1.9,1.6
	c-0.1,0.1-0.1,0.2-0.2,0.3c-0.2,0.3-0.1,0.6,0.1,0.8c1.7,2,3.6,3.7,5.6,5.4C1641.3,1242.5,1641.1,1242.5,1640.8,1242.5z"/>
</svg>
