<svg width="107" height="104" viewBox="0 0 107 104" fill="none" xmlns="http://www.w3.org/2000/svg">
<path d="M33.367 83.213C32.457 84.139 31.545 85.051 30.558 85.899C29.658 86.675 28.494 87.282 27.78 88.236C27.461 88.665 27.988 89.244 28.451 89.11C29.618 88.769 30.655 87.674 31.531 86.869C32.521 85.957 33.427 84.961 34.232 83.883C34.611 83.374 33.796 82.778 33.367 83.213Z" fill="#95B421"/>
<path d="M23.75 78.0073C22.564 78.5733 21.4 79.1853 20.233 79.7963C19.203 80.3353 17.959 80.7683 17.154 81.6203C16.765 82.0303 17.16 82.6193 17.677 82.5233C18.827 82.3083 19.878 81.4863 20.888 80.9133C22.029 80.2643 23.17 79.6173 24.287 78.9283C24.878 78.5643 24.363 77.7153 23.75 78.0073Z" fill="#95B421"/>
<path d="M16.357 64.7561C11.103 64.8901 5.07497 65.6611 0.299967 67.9321C-0.334033 68.2331 0.143975 69.1001 0.744975 68.9941C6.03997 68.0471 11.134 66.5741 16.499 65.8381C17.12 65.7501 16.966 64.7371 16.357 64.7561Z" fill="#95B421"/>
<path d="M15.7068 52.0502C14.0118 51.5672 12.2888 51.1921 10.5768 50.7771C9.04884 50.4071 7.51885 49.8852 5.94485 49.8052C5.44885 49.7832 5.23584 50.5342 5.68484 50.7572C8.55784 52.1842 12.4139 52.6372 15.5829 52.9562C16.1119 53.0092 16.1918 52.1882 15.7068 52.0502Z" fill="#95B421"/>
<path d="M16.5018 33.3553C13.4748 30.8893 10.4138 28.4493 7.32977 26.0493L7.69275 25.7803C8.46075 25.5583 8.12875 24.4833 7.36975 24.6053C6.61075 24.7283 6.18477 24.9693 5.70877 25.5623C5.48777 25.8363 5.38077 26.3093 5.70877 26.5683C6.93877 27.5443 18.9788 36.3453 18.7108 36.7713C18.4718 37.1503 19.0308 37.5963 19.3368 37.2543C20.6318 35.8223 17.2958 34.0043 16.5018 33.3553Z" fill="#95B421"/>
<path d="M30.9638 22.6203C29.7858 20.4603 28.7608 18.1993 27.5298 16.0723C27.2258 15.5483 26.3408 15.8913 26.5348 16.4903C27.3108 18.8733 28.6358 21.0983 30.0498 23.1563C30.4308 23.7133 31.2928 23.2273 30.9638 22.6203Z" fill="#95B421"/>
<path d="M39.517 0.287001C39.145 -0.363999 38.2499 0.207021 38.5369 0.863021C40.6009 5.60102 42.261 10.275 43.324 15.341C43.471 16.05 44.48 15.729 44.387 15.047C43.674 9.89501 42.113 4.81 39.517 0.287001Z" fill="#95B421"/>
<path d="M59.1452 6.16793C58.2042 8.55793 57.9232 11.4729 58.1772 14.0169C58.2332 14.5839 59.0562 14.6059 59.0752 14.0169C59.1672 11.3989 59.5772 8.99195 60.1212 6.43695C60.2592 5.78695 59.3782 5.56393 59.1452 6.16793Z" fill="#95B421"/>
<path d="M76.761 2.88556C73.413 7.31956 70.904 12.7816 68.193 17.6296C67.856 18.2316 68.761 18.7626 69.121 18.1706C72.004 13.4226 75.517 8.54759 77.725 3.44959C78.012 2.78559 77.196 2.30856 76.761 2.88556Z" fill="#95B421"/>
<path d="M82.4529 16.7685C81.6539 17.7565 81.0899 18.8895 80.2759 19.8695C79.4039 20.9215 78.3649 21.7825 77.2319 22.5405C76.7539 22.8575 77.1709 23.5805 77.6819 23.3125C79.9579 22.1175 82.6599 19.8385 83.1789 17.1925C83.2549 16.8085 82.7499 16.3975 82.4529 16.7685Z" fill="#95B421"/>
<path d="M102.41 23.033C96.8169 26.322 91.469 29.328 85.356 31.602C84.656 31.865 84.9349 32.9721 85.6699 32.7421C91.7739 30.8381 97.9829 28.075 103.066 24.149C103.701 23.659 103.153 22.596 102.41 23.033Z" fill="#95B421"/>
<path d="M98.3859 39.6089C95.8179 40.2549 93.3179 41.0229 90.7169 41.5669C90.1569 41.6829 90.2709 42.6369 90.8529 42.5769C93.5289 42.3069 96.3489 41.7169 98.7869 40.5589C99.3299 40.3009 98.9399 39.4709 98.3859 39.6089Z" fill="#95B421"/>
<path d="M105.443 54.0893C99.9507 53.5633 94.5288 53.0873 89.0558 52.3473C88.4848 52.2673 88.2097 53.0853 88.8077 53.2423C94.0697 54.6403 99.9967 55.4763 105.443 55.3273C106.251 55.3073 106.224 54.1643 105.443 54.0893Z" fill="#95B421"/>
<path d="M94.486 64.9121C93.296 64.3821 92.017 64.0651 90.773 63.6901C89.55 63.3241 88.32 62.8421 87.044 62.7221C86.7 62.6911 86.608 63.1861 86.874 63.3461C87.902 63.9621 89.101 64.2721 90.224 64.6711C91.484 65.1141 92.749 65.6481 94.056 65.9291C94.636 66.0571 95.095 65.1801 94.486 64.9121Z" fill="#95B421"/>
<path d="M92.133 84.045C90.182 82.123 87.6481 80.7181 85.3921 79.1771C84.1921 78.3611 82.988 77.549 81.783 76.738C81.181 76.332 80.584 75.9231 79.977 75.5201C79.68 75.3121 79.376 75.1141 79.067 74.9241C78.966 74.7921 78.864 74.723 78.761 74.681C78.771 74.614 78.757 74.5421 78.7 74.4631C78.667 74.4201 78.636 74.368 78.6 74.324C78.479 74.152 78.289 74.0961 78.096 74.1901C78.032 74.2231 77.964 74.256 77.897 74.288C77.725 74.373 77.692 74.5691 77.717 74.7341C77.944 76.3101 81.3421 77.7981 82.5431 78.6641C85.4101 80.7351 88.327 83.3201 91.522 84.8361C92.017 85.0681 92.566 84.467 92.133 84.045Z" fill="#95B421"/>
<path d="M77.243 86.985C75.392 85.658 73.635 84.4909 72.271 82.6159C71.972 82.2059 71.287 82.5809 71.576 83.0219C72.867 84.9889 74.66 86.936 76.916 87.761C77.396 87.938 77.606 87.246 77.243 86.985Z" fill="#95B421"/>
<path d="M31.8302 77.5936C36.5362 80.0746 43.4541 81.6726 43.9471 88.0896C43.9581 88.2256 44.0102 88.3316 44.0742 88.4236C42.9962 89.8116 43.0952 91.6166 44.2502 93.0586C43.5552 94.7306 43.9392 96.0126 44.8752 96.9926C44.7922 97.0416 44.7172 97.1126 44.6492 97.2066C44.2612 97.7716 43.8742 98.3376 43.4872 98.9016C43.6902 99.2236 43.8861 99.5486 44.0771 99.8776C44.1631 99.9406 44.2512 100.008 44.3422 100.081C44.3822 100.114 44.4092 100.151 44.4402 100.186C44.8022 99.6146 45.1692 99.0456 45.5242 98.4686C48.1422 105.671 62.1101 105.646 62.6571 96.9556C62.6701 96.7326 62.5961 96.5656 62.4801 96.4446C62.5691 96.2846 62.6411 96.1156 62.7061 95.9406C63.1011 96.4286 63.5142 96.9026 63.9192 97.3816V95.5676C63.5802 95.2156 63.2392 94.8676 62.9012 94.5136C62.8812 94.1546 62.8191 93.7706 62.6991 93.3606C62.6231 93.1106 62.4282 92.9256 62.1902 92.8516C62.2332 92.8116 62.2802 92.7786 62.3192 92.7406C63.6062 91.4876 64.0632 89.6096 63.0732 88.2196C63.1342 88.0216 63.1221 87.7946 62.9951 87.5626C60.1101 82.2836 66.9721 79.4066 70.4352 77.3526C72.9562 75.8536 75.2301 73.9736 77.1701 71.7726C80.9391 67.4906 83.4652 62.1356 84.5072 56.5346C86.6642 44.9306 82.2281 33.4766 72.7401 26.4336C63.1191 19.2896 49.9742 17.5506 39.0882 22.7696C28.1732 27.9986 20.4122 39.2506 19.2502 51.2726C18.5672 58.3426 20.3012 65.8786 24.6512 71.5696C26.5892 74.1056 29.0092 76.1136 31.8302 77.5936ZM46.7632 98.3106C48.4172 99.1206 50.4671 99.5476 51.9821 99.7216C54.1211 99.9716 58.4592 99.6746 60.9782 98.0016C59.5532 104.022 49.8492 103.161 46.7632 98.3106ZM57.5031 98.1066C56.1031 98.5446 54.5772 98.4836 53.1362 98.3826C51.3202 98.2556 47.7081 97.9276 45.9641 96.3886C45.9431 96.2796 45.9112 96.1726 45.8932 96.0616C45.8552 95.8186 45.6302 95.7406 45.4292 95.7836C45.0662 95.2456 44.8881 94.6006 45.0071 93.8106C47.0951 95.4436 50.5272 95.3856 52.9232 95.2876C55.3712 95.1866 58.6532 94.9976 60.9862 93.7066C61.0312 93.8406 61.1251 93.9606 61.2721 94.0386C62.7851 94.8286 57.7501 98.0266 57.5031 98.1066ZM52.9232 93.8546C50.9272 93.9416 41.5271 93.6376 44.8221 88.8116C49.7821 91.0506 56.5552 91.4926 61.3072 88.4506C61.3582 88.4186 61.3921 88.3756 61.4301 88.3326C61.4501 88.3686 61.4671 88.4076 61.4881 88.4416C61.5771 88.5956 61.6912 88.6986 61.8152 88.7676C63.8262 93.1676 54.5532 93.7836 52.9232 93.8546ZM35.7571 26.7106C46.7021 19.2406 61.3171 20.1726 71.8211 28.0136C82.3981 35.9116 85.8702 49.6986 81.0832 61.8846C78.4532 68.5776 73.7411 73.4096 67.5341 76.8716C63.7122 79.0076 59.2562 82.6136 60.9322 87.2456C60.8902 87.2486 60.8501 87.2456 60.8051 87.2596C55.3101 88.8476 50.8521 89.6016 45.2451 87.7186C45.2311 87.7146 45.2212 87.7166 45.2072 87.7146C44.9862 82.2886 40.3411 79.5616 35.8271 77.5046C28.8441 74.3226 24.0272 69.5836 21.9352 62.0316C18.2712 48.7976 24.6181 34.3146 35.7571 26.7106Z" fill="#95B421"/>
<path d="M52.6902 87.6691C53.1232 78.3111 51.1272 67.9951 45.9092 60.0711C44.8062 58.3961 40.5722 54.4561 38.6182 57.4571C36.7352 60.3501 40.4052 63.8991 42.9662 64.7651C47.8132 66.4011 53.0102 63.6181 56.3522 60.1881C59.1362 57.3311 59.8052 53.0691 56.3182 50.5221C53.8232 48.7001 51.9832 49.6431 51.5512 52.6241C50.8832 57.2431 52.2382 62.4451 53.1882 66.9371C54.7572 74.3571 56.8432 81.5991 57.6892 89.1701C57.7952 90.1201 59.2962 90.1311 59.1892 89.1701C58.3832 81.9571 56.5532 75.0051 54.9452 67.9511C54.5452 66.1961 51.3952 50.5091 54.2072 51.0081C57.0312 51.5091 57.6682 54.9461 56.7012 57.1191C55.8782 58.9711 54.0792 60.3951 52.4652 61.5141C48.6752 64.1381 44.1442 64.7071 40.6762 61.3471C38.0682 58.8201 41.1372 57.4221 43.3682 59.3761C45.6822 61.4031 46.7612 64.7571 47.8822 67.4931C50.5012 73.8851 51.5072 80.7991 51.1902 87.6701C51.1452 88.6371 52.6462 88.6321 52.6902 87.6691Z" fill="#95B421"/>
</svg>
