<?xml version="1.0" encoding="utf-8"?>
<!-- Generator: Adobe Illustrator 21.1.0, SVG Export Plug-In . SVG Version: 6.00 Build 0)  -->
<svg version="1.1" id="Слой_1" xmlns="http://www.w3.org/2000/svg" xmlns:xlink="http://www.w3.org/1999/xlink" x="0px" y="0px"
	 width="220px" height="220px" viewBox="0 0 220 220" style="enable-background:new 0 0 220 220;" xml:space="preserve">
<style type="text/css">
	.st0{fill:#D76480;}
	.st1{fill:#93B659;}
	.st2{fill:#7D7AB2;}
	.st3{fill:#E6AA4A;}
	.st4{fill:#82B8C2;}
	.st5{fill:#E2AD50;}
	.st6{fill:#C20B86;}
	.st7{fill:#8ECDF4;}
	.st8{fill:#56964C;}
	.st9{fill:#FFFFFF;}
	.st10{fill:#71B950;}
	.st11{fill:#4475BD;}
	.st12{fill:none;stroke:#4475BD;stroke-width:0.865;stroke-miterlimit:10;}
	.st13{fill:#262A63;}
	.st14{fill:#CC0B8C;}
	.st15{fill:#D1212A;}
	.st16{fill:none;stroke:#CC0B8C;stroke-width:3.0025;stroke-miterlimit:10;}
	.st17{fill:#F4EE3C;}
	.st18{fill:none;stroke:#CC0B8C;stroke-width:2.8746;stroke-miterlimit:10;}
	.st19{fill:#63A552;}
	.st20{fill:#9EC54A;}
	.st21{fill:#CD2229;}
	.st22{fill:#FEFFFE;}
</style>
<g>
	<g>
		<g>
			<g>
				<path class="st0" d="M78.2,99.6c0.1-0.8,0.4-1.6,0.8-2.4c0.3-0.8,0.6-1.6,1-2.4c0.7-1.6,1.4-3.2,2.1-4.7s1.4-3.1,2.2-4.6
					c0.8-1.5,1.6-2.9,2.5-4.2c1-1.5,2-3,3.3-4.4c-0.3-0.2-0.6-0.5-0.9-0.7c-1.5,2.8-2.2,6-2.8,9.1c-0.3,1.5-0.6,3-0.8,4.5
					c-0.2,1.7-0.4,3.3-0.6,5c-0.2,1.9-0.4,3.9-0.3,5.8c0,0.7,1.2,0.7,1.2,0c-0.1-1.7,0-3.4,0.2-5c0.2-1.7,0.3-3.3,0.6-5
					c0.2-1.4,0.5-2.9,0.7-4.3c0.3-1.5,0.5-3,0.9-4.5c0.5-1.7,1-3.4,1.8-4.9c0.3-0.6-0.4-1.2-0.9-0.7c-1.1,1.2-2.1,2.5-3,3.9
					s-1.8,2.8-2.6,4.3c-0.8,1.5-1.5,3.1-2.3,4.6c-0.7,1.6-1.5,3.2-2.1,4.8c-0.4,0.9-0.8,1.8-1.1,2.7c-0.4,0.9-0.7,1.8-0.9,2.7
					c-0.1,0.3,0.1,0.6,0.4,0.7C77.7,100.1,78.1,99.9,78.2,99.6L78.2,99.6z"/>
			</g>
		</g>
		<g>
			<g>
				<path class="st0" d="M78.3,92c1.7-0.7,3.4-1.5,5.1-2.2c1.6-0.7,3.3-1.5,5-2c0.7-0.2,0.4-1.3-0.3-1.1c-0.9,0.2-1.7,0.6-2.5,0.9
					c-0.9,0.4-1.8,0.8-2.6,1.1c-1.7,0.8-3.5,1.5-5.2,2.3c-0.3,0.1-0.4,0.5-0.2,0.8C77.7,92.1,78,92.1,78.3,92L78.3,92z"/>
			</g>
		</g>
		<g>
			<g>
				<path class="st1" d="M64.3,128.3c0.2-1.4,0.9-2.6,1.4-3.9c0.5-1.3,1.1-2.6,1.7-3.8c1.2-2.5,2.4-5,3.9-7.3
					c0.8-1.2,1.6-2.5,2.7-3.5c-0.3-0.2-0.6-0.5-0.9-0.7c-1.3,2.3-1.9,4.9-2.3,7.5c-0.2,1.2-0.5,2.4-0.6,3.6
					c-0.2,1.4-0.3,2.8-0.5,4.2c-0.2,1.6-0.3,3.2-0.2,4.7c0,0.7,1.2,0.7,1.2,0c-0.1-1.4,0-2.7,0.1-4.1c0.1-1.3,0.3-2.7,0.5-4
					c0.2-1.2,0.4-2.4,0.6-3.6s0.4-2.5,0.8-3.7c0.4-1.4,0.8-2.8,1.5-4.1c0.3-0.6-0.4-1.2-0.9-0.7c-0.9,1-1.8,2.1-2.5,3.2
					c-0.8,1.2-1.5,2.3-2.2,3.6c-1.4,2.5-2.5,5.1-3.6,7.7c-0.3,0.7-0.6,1.5-0.9,2.2s-0.6,1.5-0.8,2.3c-0.1,0.3,0.1,0.6,0.4,0.7
					C63.9,128.8,64.2,128.6,64.3,128.3L64.3,128.3z"/>
			</g>
		</g>
		<g>
			<g>
				<path class="st1" d="M64.4,122.1c1.4-0.6,2.8-1.2,4.2-1.8c1.3-0.6,2.7-1.3,4.1-1.7c0.7-0.2,0.4-1.3-0.3-1.1
					c-1.5,0.4-2.9,1.1-4.3,1.7s-2.9,1.2-4.3,1.8c-0.3,0.1-0.4,0.5-0.2,0.8C63.8,122.2,64.1,122.2,64.4,122.1L64.4,122.1z"/>
			</g>
		</g>
		<g>
			<g>
				<path class="st2" d="M100.7,99.6c0.1-0.8,0.4-1.6,0.8-2.4c0.3-0.8,0.6-1.6,1-2.4c0.7-1.6,1.4-3.2,2.1-4.7s1.4-3.1,2.2-4.6
					c0.8-1.5,1.6-2.9,2.5-4.2c1-1.5,2-3,3.3-4.4c-0.3-0.2-0.6-0.5-0.9-0.7c-1.5,2.8-2.2,6-2.8,9.1c-0.3,1.5-0.6,3-0.8,4.5
					c-0.2,1.7-0.4,3.3-0.6,5c-0.2,1.9-0.4,3.9-0.3,5.8c0,0.7,1.2,0.7,1.2,0c-0.1-1.7,0-3.4,0.2-5c0.2-1.7,0.3-3.3,0.6-5
					c0.2-1.4,0.5-2.9,0.7-4.3c0.3-1.5,0.5-3,0.9-4.5c0.5-1.7,1-3.4,1.8-4.9c0.3-0.6-0.4-1.2-0.9-0.7c-1.1,1.2-2.1,2.5-3,3.9
					s-1.8,2.8-2.6,4.3c-0.8,1.5-1.5,3.1-2.3,4.6c-0.7,1.6-1.5,3.2-2.1,4.8c-0.4,0.9-0.8,1.8-1.1,2.7c-0.4,0.9-0.7,1.8-0.9,2.7
					c-0.1,0.3,0.1,0.6,0.4,0.7C100.3,100.1,100.6,99.9,100.7,99.6L100.7,99.6z"/>
			</g>
		</g>
		<g>
			<g>
				<path class="st2" d="M100.9,92c1.7-0.7,3.4-1.5,5.1-2.2c1.6-0.7,3.3-1.5,5-2c0.7-0.2,0.4-1.3-0.3-1.1c-0.9,0.2-1.7,0.6-2.5,0.9
					c-0.9,0.4-1.8,0.8-2.6,1.1c-1.7,0.8-3.5,1.5-5.2,2.3c-0.3,0.1-0.4,0.5-0.2,0.8C100.2,92.1,100.6,92.1,100.9,92L100.9,92z"/>
			</g>
		</g>
		<g>
			<g>
				<path class="st3" d="M95.8,75.2c-0.4,0.6-0.8,1.2-1.1,1.9c-0.4,0.8-0.7,1.6-1,2.5c-0.7,1.6-1.3,3.3-2,4.9
					c-1.2,3.3-2.3,6.7-3.1,10.2c-0.4,2-0.8,3.9-0.9,5.9c0,0.3,0.3,0.6,0.6,0.6c0.3,0,0.5-0.3,0.6-0.6c0.7-6.9,3-13.6,5.7-20
					c0.4-0.9,0.7-1.8,1.1-2.6c0.3-0.8,0.8-1.5,1.2-2.2C97.2,75.1,96.2,74.6,95.8,75.2L95.8,75.2z"/>
			</g>
		</g>
		<g>
			<g>
				<path class="st3" d="M93.1,78.2c0.4-0.3,0.9-0.6,1.4-0.9s1.1-0.5,1.7-0.6c1-0.3,2.6-0.4,3,0.8c0.4,1.1,0.1,2.5-0.6,3.4
					c-0.4,0.5-0.9,0.9-1.4,1.3s-1.1,0.7-1.6,1.1c-1.2,0.8-2.6,1.4-4,1.9c-0.7,0.2-0.4,1.2,0.3,1.1c0.7-0.1,1.5-0.1,2.2,0.1
					s1.4,0.7,1.9,1.2s0.7,1.3,0.8,2c0.1,0.7,0.1,1.5,0.1,2.2c0,1.3-0.3,2.5-0.9,3.7c-0.3,0.7-0.7,1.4-1.3,1.9c-0.4,0.4-1,0.7-1.6,1
					c-1.3,0.5-3,0.8-4.4,0.2c-0.3-0.1-0.6-0.1-0.8,0.2c-0.1,0.3-0.1,0.7,0.2,0.8c1.5,0.7,3.2,0.6,4.7,0.1c0.7-0.2,1.5-0.5,2.1-1
					c0.7-0.5,1.2-1.2,1.7-1.9c0.8-1.4,1.3-2.9,1.4-4.5c0.1-0.9,0-1.7-0.1-2.6c-0.1-0.8-0.3-1.7-0.8-2.4c-0.6-0.8-1.5-1.5-2.5-1.8
					s-2.1-0.3-3.1-0.2c0.1,0.4,0.2,0.7,0.3,1.1c1.4-0.5,2.9-1.1,4.1-1.9c0.6-0.4,1.3-0.8,1.9-1.2c0.7-0.5,1.2-1,1.7-1.6
					c0.9-1.2,1.2-2.7,0.8-4.1c-0.4-1.6-2-2.3-3.6-2c-0.9,0.1-1.8,0.5-2.6,0.8c-0.6,0.3-1.1,0.7-1.7,1c-0.3,0.2-0.4,0.5-0.2,0.8
					C92.5,78.3,92.9,78.4,93.1,78.2L93.1,78.2z"/>
			</g>
		</g>
		<g>
			<g>
				<path class="st1" d="M121,83.5c1.1-1.5,1.8-3.3,2.1-5.2c0.1-0.5,0.1-0.9,0.1-1.4s0-1-0.3-1.4c-0.4-0.6-1.3-0.9-1.9-0.6
					c-0.5,0.2-1,0.7-1.4,1.1c-0.4,0.5-0.9,1-1.2,1.5c-0.9,1.2-1.6,2.4-2.4,3.7c-1.4,2.3-2.5,4.8-3.3,7.4c-0.5,1.8-0.9,3.6-1,5.5
					c-0.1,1-0.2,2.1-0.1,3.1c0.1,0.9,0.4,1.8,1.1,2.4s1.6,0.9,2.5,0.5c0.9-0.3,1.6-1,2.1-1.7c0.6-0.8,0.9-1.7,1.3-2.6
					c0.4-1,0.7-1.9,1.1-2.9c0.2-0.5,0.4-1,0.6-1.5c0.1-0.3-0.1-0.6-0.4-0.7s-0.6,0.1-0.7,0.4c-0.4,0.9-0.7,1.9-1.1,2.8
					c-0.3,0.8-0.6,1.6-0.9,2.4c-0.3,0.7-0.7,1.5-1.3,2c-0.5,0.5-1.2,0.9-1.9,0.7c-0.6-0.3-1-1-1.1-1.6c-0.2-0.9,0-1.8,0-2.7
					c0.1-1.7,0.4-3.4,0.8-5c0.3-1.3,0.7-2.5,1.2-3.7c0.2-0.4,0.3-0.7,0.5-1.1c0.2-0.5,0.5-1,0.8-1.5c0.8-1.5,1.8-2.9,2.7-4.3
					c0.5-0.8,1.1-1.6,1.8-2.3c0.1-0.1,0.2-0.2,0.3-0.3l0.1-0.1c0,0,0.2-0.2,0.1-0.1c0.1-0.1,0.2-0.1,0.3-0.2c-0.2,0.1,0,0,0,0
					s0,0,0.1,0c-0.1,0-0.1,0-0.1,0c0.3,0,0.6,0.1,0.7,0.4c0.1,0.4,0,0.9,0,1.3c-0.1,1.9-0.9,3.7-2,5.2c-0.2,0.3,0,0.6,0.2,0.8
					C120.5,83.9,120.8,83.8,121,83.5L121,83.5z"/>
			</g>
		</g>
		<g>
			<g>
				<path class="st1" d="M149.6,116.5c0.9-1.3,1.5-2.7,1.7-4.3c0.1-0.7,0.2-1.6-0.2-2.2c-0.3-0.5-1.1-0.8-1.7-0.6
					c-0.5,0.2-0.8,0.5-1.1,0.9c-0.4,0.4-0.7,0.8-1,1.3c-0.7,1-1.3,2-2,3c-1.1,1.9-2,3.9-2.6,6c-0.4,1.5-0.7,3-0.8,4.5
					c-0.1,1.4-0.4,3.3,0.9,4.4c0.7,0.6,1.5,0.7,2.3,0.3c0.8-0.3,1.4-1,1.8-1.8c0.4-0.7,0.7-1.5,1-2.3c0.4-0.9,0.7-1.9,1.1-2.8
					c0.1-0.3-0.1-0.6-0.4-0.7c-0.3-0.1-0.6,0.1-0.7,0.4c-0.5,1.4-1,2.8-1.6,4.1c-0.3,0.6-0.6,1.2-1.1,1.7c-0.4,0.3-0.9,0.7-1.4,0.4
					c-1.2-0.5-0.8-2.3-0.8-3.3c0.1-1.3,0.3-2.7,0.7-4c0.5-1.8,1.1-3.4,1.9-5c0.6-1.2,1.4-2.3,2.1-3.4c0.4-0.7,0.9-1.3,1.5-1.9
					c0.2-0.2,0.3-0.3,0.5-0.5c-0.1,0,0,0,0,0l0.1-0.1c0.1,0,0.1,0,0.1,0s0,0-0.1,0c0.2,0,0.4,0.1,0.5,0.3c0.1,0.3,0,0.7,0,1
					c-0.1,1.5-0.7,2.9-1.6,4.1c-0.2,0.3,0,0.6,0.2,0.8C149.1,116.9,149.4,116.8,149.6,116.5L149.6,116.5z"/>
			</g>
		</g>
		<g>
			<g>
				<path class="st0" d="M128.9,74.8c-3.5,5.6-6.1,11.9-7.3,18.4c-0.2,0.9-0.3,1.7-0.3,2.6c0,0.8-0.1,1.8,0.4,2.5
					c0.4,0.7,1.1,1.1,1.9,0.8c0.8-0.2,1.3-1,1.7-1.6c0.4-0.7,0.8-1.4,1.1-2.2c0.4-0.8,0.8-1.6,1.2-2.5c0.8-1.6,1.6-3.3,2.4-4.9
					c0.9-1.8,1.8-3.7,2.6-5.5c0.4-0.9,0.9-1.8,1.3-2.8c0.2-0.5,0.4-0.9,0.7-1.4c0.1-0.2,0.2-0.4,0.3-0.5c0-0.1,0.1-0.1,0.1-0.2
					c0.1-0.2,0.2,0.1-0.2-0.1c-0.1-0.3-0.1-0.5-0.2-0.8c-0.4,0.7-0.8,1.3-1.3,2c-0.4,0.7-0.8,1.3-1.1,2.1c-0.6,1.3-0.9,2.7-1.3,4.1
					c-0.9,3.1-1.9,6.2-2.3,9.4c-0.3,1.9-0.3,3.8-0.1,5.6c0,0.3,0.2,0.6,0.6,0.6c0.3,0,0.6-0.3,0.6-0.6c-0.3-3.3,0.2-6.4,1-9.6
					c0.4-1.5,0.8-3.1,1.3-4.6c0.4-1.3,0.7-2.7,1.2-4c0.3-0.8,0.6-1.5,1.1-2.2s1-1.4,1.4-2.2c0.1-0.3,0.1-0.7-0.2-0.8
					c-0.7-0.3-1.2,0.3-1.5,0.9c-0.4,0.8-0.8,1.6-1.1,2.4c-0.8,1.6-1.5,3.2-2.3,4.8c-1.5,3.2-3,6.4-4.6,9.6c-0.4,0.8-0.7,1.5-1.1,2.3
					c-0.2,0.3-0.4,0.7-0.6,1c-0.2,0.3-0.4,0.6-0.7,0.7c-0.6,0.2-0.8-0.7-0.8-1.1c0-0.8,0-1.7,0.1-2.5c0.2-1.6,0.6-3.2,1.1-4.7
					c0.4-1.6,0.9-3.1,1.5-4.6c1.3-3.4,2.9-6.6,4.8-9.6C130.3,74.7,129.3,74.1,128.9,74.8L128.9,74.8z"/>
			</g>
		</g>
		<g>
			<g>
				<path class="st2" d="M140.6,84.5c0.8-0.3,1.4-0.8,2-1.4s1.2-1.2,1.7-1.8c1.1-1.4,1.6-3.2,1.3-4.9c-0.2-0.8-0.7-1.6-1.5-1.8
					c-0.9-0.2-1.7,0.3-2.4,0.7c-1.3,0.8-2.4,1.8-3.2,3c-0.9,1.2-1.5,2.6-1.7,4c-0.2,1.6,0,3.2,0.4,4.7s1,3,1.4,4.6
					c0.2,0.8,0.3,1.5,0.3,2.3c0,0.7,0,1.6-0.4,2.2c-0.8,1.4-2.8,1.1-3.7-0.1c-1-1.4-0.5-3.3,1-4.2c0.7-0.4,0.1-1.4-0.6-1
					c-1.4,0.8-2.3,2.4-2,4.1c0.2,1.5,1.4,2.9,2.9,3.2c1.6,0.3,3.2-0.5,3.7-2.1c0.6-1.5,0.3-3.2,0-4.7c-0.7-3-2.4-6-1.8-9.1
					c0.5-2.8,2.6-5.2,5.1-6.5c0.3-0.2,0.7-0.3,1,0c0.3,0.2,0.4,0.7,0.4,1c0.1,0.9-0.1,1.9-0.5,2.8c-0.4,0.8-1,1.4-1.7,2.1
					c-0.6,0.6-1.2,1.3-2.1,1.6c-0.3,0.1-0.5,0.4-0.4,0.7C140,84.4,140.3,84.7,140.6,84.5L140.6,84.5z"/>
			</g>
		</g>
		<g>
			<g>
				<path class="st0" d="M80.1,109.2c-1,2.4-2.1,4.8-3.1,7.3c-0.9,2.4-1.6,4.9-2.1,7.4c-0.3,1.4-0.6,2.9-0.8,4.3
					c-0.1,0.3,0.1,0.6,0.4,0.7c0.3,0.1,0.7-0.1,0.7-0.4c0.5-2.5,0.9-5,1.6-7.5s1.6-4.8,2.6-7.2c0.6-1.4,1.2-2.7,1.7-4.1
					c0.1-0.3,0.1-0.6-0.2-0.8C80.6,108.8,80.2,108.9,80.1,109.2L80.1,109.2z"/>
			</g>
		</g>
		<g>
			<g>
				<path class="st0" d="M78.8,112.3c1-0.8,2.4-1.3,3.7-1.1c1,0.2,1,1.2,1,2.1c0,0.1,0,0.3,0,0.4s0,0.2,0,0.2v0.1l0,0v0.1
					c-0.1,0.4-0.2,0.8-0.4,1.1c-0.6,1-1.7,1.8-2.7,2.3c-0.7,0.3-1.4,0.6-2.1,0.7c-0.4,0.1-0.7,0.2-1.1,0.1c-0.2,0-0.3,0-0.5-0.1
					c-0.1,0-0.1,0-0.2-0.1c0,0-0.1,0-0.1-0.1l0,0c0,0.1,0,0.2,0,0.3l0,0c-0.1,0.1-0.1,0.1-0.2,0.2c0,0,0,0,0.1,0
					c-0.1,0-0.2,0.1-0.3,0.1c-0.1,0,0.1,0.1,0.1,0.1c0.1,0.1,0.1,0.1,0.2,0.2c0.1,0.2,0.2,0.3,0.3,0.5c0.2,0.4,0.4,0.9,0.6,1.3
					c0.4,0.9,0.7,1.9,1,2.9s0.5,2,0.7,3s0.3,2.1,0.7,3c0.2,0.7,1.4,0.4,1.1-0.3c-0.4-1.3-0.6-2.8-0.9-4.1c-0.3-1.4-0.7-2.7-1.2-4
					c-0.2-0.7-0.5-1.3-0.8-1.9c-0.2-0.5-0.5-1.1-1-1.5c-0.3-0.2-0.6-0.4-0.9-0.3c-0.4,0.1-0.7,0.5-0.6,0.9c0.1,0.6,0.9,0.9,1.4,1
					c1.3,0.2,2.6-0.3,3.8-0.8c1.1-0.5,2.2-1.2,3-2.1c0.6-0.7,1-1.5,1.2-2.4c0.1-0.6,0.1-1.2,0-1.8c0-0.7-0.2-1.3-0.6-1.8
					c-0.5-0.6-1.2-0.7-2-0.7c-1.5,0-2.9,0.5-4,1.5c-0.2,0.2-0.2,0.6,0,0.8C78.2,112.6,78.6,112.5,78.8,112.3L78.8,112.3z"/>
			</g>
		</g>
		<g>
			<g>
				<path class="st3" d="M88.7,110.3c-0.5,0.9-0.8,1.9-1.1,2.9c-0.5,1.3-1,2.6-1.4,3.9c-0.9,2.4-1.7,4.9-2.2,7.5
					c-0.3,1.5-0.5,3-0.5,4.5c0,0.7,1.1,0.7,1.2,0c0.2-5.2,2.1-10.1,3.9-14.9c0.4-1.1,0.7-2.2,1.2-3.2
					C90.1,110.3,89.1,109.7,88.7,110.3L88.7,110.3z"/>
			</g>
		</g>
		<g>
			<g>
				<path class="st2" d="M90.9,112.6c3.3-1.1,6.7-1.7,10.1-1.6c0.7,0,0.7-1.1,0-1.2c-3.5-0.1-7.1,0.5-10.4,1.6
					C89.9,111.7,90.2,112.8,90.9,112.6L90.9,112.6z"/>
			</g>
		</g>
		<g>
			<g>
				<path class="st2" d="M95.5,110.6c-0.1,0.6-0.4,1.3-0.6,1.8c-0.4,1.3-0.9,2.5-1.4,3.8c-1.1,3.1-2.2,6.3-3.2,9.4
					c-0.4,1.3-0.8,2.7-1.1,4.1c-0.1,0.3,0.1,0.6,0.4,0.7c0.3,0.1,0.7-0.1,0.7-0.4c0.2-1.2,0.6-2.4,0.9-3.6c0.5-1.6,1-3.1,1.5-4.7
					c1-2.9,2.1-5.8,3.1-8.7c0.2-0.5,0.4-1,0.5-1.5c0.1-0.2,0.2-0.5,0.2-0.7c0-0.3-0.1-0.6-0.4-0.7C95.9,110.1,95.5,110.2,95.5,110.6
					L95.5,110.6z"/>
			</g>
		</g>
		<g>
			<g>
				<path class="st1" d="M103.2,108.7c-1.1,2.5-2.3,5-3.2,7.5c-1,2.7-2.1,5.5-2.6,8.3c-0.3,1.6-0.5,3.2-0.6,4.9c0,0.7,1.1,0.7,1.2,0
					c0.1-2.8,0.6-5.6,1.5-8.3c0.4-1.4,0.9-2.7,1.4-4s1-2.5,1.5-3.8c0.6-1.4,1.2-2.7,1.8-4.1c0.1-0.3,0.1-0.6-0.2-0.8
					C103.8,108.4,103.3,108.4,103.2,108.7L103.2,108.7z"/>
			</g>
		</g>
		<g>
			<g>
				<path class="st1" d="M97.7,121.4c2.9-1.3,6-2.5,9.1-3c0.3-0.1,0.5-0.4,0.4-0.7c-0.1-0.3-0.4-0.5-0.7-0.4
					c-3.3,0.5-6.4,1.7-9.4,3.1c-0.3,0.1-0.4,0.5-0.2,0.8C97.1,121.5,97.4,121.6,97.7,121.4L97.7,121.4z"/>
			</g>
		</g>
		<g>
			<g>
				<path class="st1" d="M108.5,109.5c-1.8,5.2-4.1,10.2-5.7,15.4c-0.5,1.5-0.8,3-1.1,4.5c0,0.3,0.1,0.6,0.4,0.7
					c0.3,0.1,0.7-0.1,0.7-0.4c0.4-2.7,1.3-5.4,2.2-8c0.9-2.6,1.9-5.1,2.9-7.6c0.6-1.5,1.1-2.9,1.6-4.4
					C109.8,109.2,108.7,108.8,108.5,109.5L108.5,109.5z"/>
			</g>
		</g>
		<g>
			<g>
				<path class="st4" d="M114.1,109.4c-1.1,1.8-2.1,3.8-2.9,5.7c-0.6,1.4-1.2,2.8-1.8,4.3c-0.9,2.2-1.7,4.4-2.5,6.6
					c-0.4,1.2-0.9,2.4-1.3,3.6c-0.2,0.7,0.9,1,1.1,0.3c0.7-2.4,1.7-4.7,2.5-7c0.4-1,0.8-2,1.1-2.9c0.1-0.1,0.1-0.3,0.2-0.4
					c0,0,0-0.1,0.1-0.1c0-0.1,0,0.1,0,0.1l0.1-0.2c0.4-1,0.8-1.9,1.2-2.9c0.9-2.2,1.9-4.4,3.2-6.4
					C115.5,109.4,114.5,108.8,114.1,109.4L114.1,109.4z"/>
			</g>
		</g>
		<g>
			<g>
				<path class="st4" d="M114.2,109.6c-0.8,2.2-1.7,4.4-2.5,6.7c-0.8,2.1-1.5,4.3-1.8,6.5c-0.1,0.6-0.1,1.3-0.2,1.9
					c0,0.6,0.1,1.1,0.5,1.6c0.3,0.3,0.7,0.2,0.9-0.1c2.8-3.9,4.5-8.4,7-12.4c0.7-1.1,1.5-2.2,2.1-3.3c0.1-0.3,0.1-0.6-0.2-0.8
					c-0.3-0.2-0.7-0.1-0.8,0.2c-1.4,2.9-2.9,5.7-3.8,8.8c-0.5,1.5-0.8,3.1-1,4.7c-0.1,1.2-0.2,2.3-0.2,3.5c0,1.1,0,2.2,0.1,3.3
					c0,0.3,0.2,0.6,0.6,0.6c0.3,0,0.6-0.3,0.6-0.6c-0.1-0.9-0.1-1.9-0.1-2.8c0-1.1,0-2.2,0.1-3.2c0.3-3.1,1.3-6,2.5-8.8
					c0.7-1.6,1.5-3.2,2.3-4.8c-0.3-0.2-0.7-0.4-1-0.6c-0.5,1-1.2,2-1.8,2.9c-0.6,1-1.2,2-1.8,3.1c-1.1,2.1-2.1,4.3-3.3,6.3
					c-0.7,1.2-1.4,2.3-2.2,3.4c0.3,0,0.6-0.1,0.9-0.1c-0.2-0.3-0.1-0.8-0.1-1.1c0-0.5,0.1-1,0.2-1.5c0.2-1.1,0.4-2.1,0.7-3.2
					c0.6-2.1,1.4-4.1,2.1-6.1c0.4-1.2,0.9-2.4,1.3-3.6c0.1-0.3-0.1-0.6-0.4-0.7C114.5,109.1,114.3,109.3,114.2,109.6L114.2,109.6z"
					/>
			</g>
		</g>
		<g>
			<g>
				<path class="st0" d="M122.8,111.6L122.8,111.6c0.2-0.1,0.3-0.2,0.5-0.3l0,0c0.2,0.1,0.3,0.2,0.5,0.3l0,0c0,0.2,0,0.4,0,0.6l0,0
					c-0.1,0.1-0.1,0.1-0.2,0.2c0.4-0.3,1-0.4,1.5-0.6s1-0.3,1.5-0.4s1-0.2,1.6-0.3c0.3,0,0.6-0.1,0.8-0.1c0.3,0,0.6,0,0.9-0.2
					c0.2-0.2,0.2-0.5,0.1-0.7c-0.1-0.1-0.2-0.3-0.4-0.3s-0.5,0-0.7,0.3l0,0c-0.1,0.3-0.1,0.6,0.2,0.8c0.2,0.1,0.7,0.1,0.8-0.2l0,0
					c-0.2,0.1-0.4,0.2-0.7,0.3l0,0c-0.1-0.1-0.2-0.2-0.3-0.3l0,0c0-0.2,0.1-0.5,0.1-0.7l0,0c0.1,0,0.2-0.1,0.3-0.1
					c-0.3,0.1-0.6,0.1-0.9,0.1c-0.3,0-0.6,0.1-0.9,0.1c-0.6,0.1-1.1,0.2-1.7,0.3c-0.6,0.1-1.1,0.3-1.6,0.5c-0.3,0.1-0.5,0.2-0.8,0.3
					C123.2,111.2,122.9,111.3,122.8,111.6c-0.1,0.2-0.2,0.4-0.1,0.6s0.3,0.3,0.5,0.3s0.4-0.1,0.5-0.3l0,0
					C124.3,111.5,123.2,110.9,122.8,111.6L122.8,111.6z"/>
			</g>
		</g>
		<g>
			<g>
				<path class="st0" d="M123.6,111.4c-0.9,2.4-1.7,4.7-2.6,7.1c-0.8,2.3-1.6,4.6-2.3,6.9c-0.4,1.3-0.7,2.7-0.9,4
					c0,0.3,0.1,0.6,0.4,0.7c0.3,0.1,0.7-0.1,0.7-0.4c0.8-4.8,2.6-9.4,4.2-14c0.5-1.3,1-2.7,1.5-4c0.1-0.3-0.1-0.6-0.4-0.7
					C124,110.9,123.8,111.1,123.6,111.4L123.6,111.4z"/>
			</g>
		</g>
		<g>
			<g>
				<path class="st0" d="M118.8,129.8c0.3-0.2,0.6-0.3,0.9-0.5c0.5-0.2,1-0.4,1.5-0.6c0.5-0.2,1-0.4,1.6-0.6
					c0.2-0.1,0.4-0.1,0.6-0.2c0.1,0,0.2,0,0.2-0.1h0.1c0,0-0.2,0-0.1,0c0.7,0,0.7-1.2,0-1.2c-0.4,0-0.8,0.2-1.1,0.3
					c-0.5,0.2-1.1,0.4-1.6,0.6c-0.6,0.2-1.1,0.5-1.7,0.7c-0.3,0.2-0.7,0.3-1,0.5s-0.4,0.5-0.2,0.8
					C118.1,129.9,118.5,130,118.8,129.8L118.8,129.8z"/>
			</g>
		</g>
		<g>
			<g>
				<path class="st0" d="M121.7,119.9c0.6-0.2,1.2-0.5,1.8-0.7c0.3-0.1,0.6-0.2,0.9-0.2c0.2,0,0.6,0,0.8,0c0.4,0.1,0.8-0.3,0.7-0.7
					v-0.1c-0.1-0.3-0.4-0.5-0.7-0.4s-0.5,0.4-0.4,0.7v0.1c0.2-0.2,0.5-0.5,0.7-0.7c-1.4-0.2-2.8,0.4-4.1,0.9
					c-0.3,0.1-0.5,0.4-0.4,0.7C121.1,119.8,121.4,120,121.7,119.9L121.7,119.9z"/>
			</g>
		</g>
		<g>
			<g>
				<path class="st2" d="M129.8,112.5c1-0.4,2-0.7,2.9-1.1c1.3-0.5,2.6-0.9,4.1-1.1c1.2-0.1,2.4-0.2,3.6,0c0.3,0,0.6-0.3,0.6-0.6
					c0-0.3-0.3-0.6-0.6-0.6c-2-0.2-4-0.1-5.9,0.5c-1.2,0.3-2.5,0.8-3.7,1.2c-0.4,0.2-0.9,0.3-1.3,0.5c-0.3,0.1-0.5,0.4-0.4,0.7
					C129.3,112.4,129.5,112.6,129.8,112.5L129.8,112.5z"/>
			</g>
		</g>
		<g>
			<g>
				<path class="st2" d="M134.5,110.2c-1,2.5-2.1,4.9-3.1,7.4c-0.5,1.2-0.9,2.4-1.2,3.6c-0.3,1.3-0.6,2.6-0.9,3.9
					c-0.3,1.5-0.7,2.9-0.6,4.4c0,0.7,1.2,0.7,1.2,0c-0.1-1.3,0.2-2.6,0.5-3.8c0.3-1.3,0.6-2.6,0.9-3.8c0.6-2.5,1.7-4.9,2.7-7.2
					c0.6-1.4,1.2-2.8,1.7-4.2c0.1-0.3-0.1-0.6-0.4-0.7C134.9,109.7,134.6,109.9,134.5,110.2L134.5,110.2z"/>
			</g>
		</g>
		<g>
			<g>
				<path class="st4" d="M142.4,109.7c-1.3,2.2-2.3,4.6-3.2,7s-1.9,4.8-2.5,7.3c-0.4,1.4-0.6,2.9-0.6,4.4c0,0.7,1.2,0.7,1.2,0
					c0-2.5,0.7-5,1.6-7.4c0.8-2.3,1.7-4.7,2.7-6.9c0.6-1.3,1.2-2.5,1.9-3.8C143.8,109.7,142.8,109.1,142.4,109.7L142.4,109.7z"/>
			</g>
		</g>
	</g>
	<g>
		<g>
			<path class="st5" d="M110.4,204.5c-20.2,0-39.7-6.2-56.3-18.1c-20.2-14.5-33.7-36.2-37.9-61c-4.2-24.9,1.5-49.9,16.1-70.2
				c14.6-20.4,36.6-34,61.9-38.3s50.3,1.3,70.5,15.8l-5.6,2.4c-19-13.7-40.1-17.2-64-13.1S50.4,38.9,36.6,58.2
				C22.8,77.4,17.4,101,21.3,124.5c4,23.5,16.7,43.9,35.8,57.7c19.2,13.8,42.9,19.6,66.6,16.2c23.9-3.4,41.9-12.8,55.6-31.9h6.9
				c-14.5,20.2-36.5,33.4-61.8,37C119.8,204.1,115.1,204.5,110.4,204.5z"/>
		</g>
		<g>
			<path class="st6" d="M108.3,198.9c-48.4,0-88.3-39.2-89.3-88.2c-0.5-24.2,8.2-47.2,24.6-64.9C60.2,28,82.4,17.9,106.2,17.4
				c23.9-0.5,46.7,8.6,64.4,25.7s27.7,39.8,28.2,63.8l-4.9,0.1c-1-46.9-41.2-85.7-87.6-84.7c-22.4,0.5-43.4,10-59,26.8
				C31.8,65.9,23.5,87.7,24,110.5c1,47,39.7,84.4,86.2,83.4l0.1,4.9C109.6,198.9,109,198.9,108.3,198.9z"/>
		</g>
		<g>
			<path class="st7" d="M111.7,21.3c-48.3,0-87.4,39.1-87.4,87.4s39.1,87.4,87.4,87.4s87.4-39.1,87.4-87.4S160,21.3,111.7,21.3z
				 M108.9,161.1c-29.1,0-52.7-24-52.7-53.6s23.6-53.6,52.7-53.6s52.7,24,52.7,53.6S138.1,161.1,108.9,161.1z"/>
		</g>
		<g>
			<path class="st8" d="M109.9,191.8c-19.1,0-37.7-6.7-53.1-19.2c-17.8-14.5-29-34.7-31.4-57.1l6.9,1.7
				c2.2,20.6,12.1,36.9,28.6,50.3s36.8,19.5,57.2,17.3c20.3-2.2,38.6-12.5,51.4-29c12.8-16.4,18.6-36.9,16.4-57.6
				c-2.3-20.5-12.3-39.1-28.3-52.1S124.9,26.8,104.5,29l-4.1-6.1c22.2-2.4,43.9,4.1,61.3,18.2s28.3,34.2,30.7,56.5
				c2.4,22.4-3.9,44.6-17.7,62.3c-13.9,17.9-33.8,29.1-55.9,31.5C115.8,191.7,112.8,191.8,109.9,191.8z"/>
		</g>
		<g>
			<path class="st9" d="M108,189.8c-43.1,0-78.6-34.9-79.6-78.6c-0.5-21.5,7.3-42,22-57.8c14.7-15.9,34.5-24.9,55.7-25.3
				c21.3-0.5,41.6,7.7,57.4,22.9s24.7,35.4,25.2,56.8l-4.9,0.1c-0.4-20.1-8.8-39.1-23.6-53.4S126.3,32.6,106.3,33
				c-19.8,0.4-38.4,8.9-52.2,23.7C40.4,71.5,33,90.8,33.5,111c0.9,41.6,35.1,74.6,76.2,73.7l0.1,4.9
				C109.2,189.8,108.6,189.8,108,189.8z"/>
		</g>
		<g>
			<path class="st10" d="M108.8,166.2c-31.3,0-57.1-25.3-57.8-57.1c-0.3-15.6,5.4-30.3,16-41.6c10.7-11.3,25-17.6,40.5-18
				c31.8-0.7,58.3,24.9,59,57.1l-2.6,0.1c-0.7-30.7-26-55.2-56.4-54.6c-14.6,0.3-28.4,6.4-38.6,17.2C58.7,80,53.3,94.2,53.6,109.1
				c0.7,30.7,26,55.2,56.4,54.6c15.8-0.3,29.4-5.8,39.6-18l3.3-0.1c-10.7,12.7-26.3,20.2-42.8,20.6
				C109.7,166.2,109.3,166.2,108.8,166.2z"/>
		</g>
		<g>
			<path class="st11" d="M108.3,175.6c-22.5,0-43.5-11.3-56.1-30.2h3.1c12.2,18.2,31.2,27.7,52.9,27.7c35.9,0,65.2-29.6,65.2-65.9
				s-29.2-65.9-65.2-65.9c-13.1,0-23.3,2.4-34.1,9.8l-3.7-0.5c11.2-7.6,24.3-11.7,37.8-11.7c37.3,0,67.6,30.7,67.6,68.4
				C175.9,144.9,145.6,175.6,108.3,175.6z"/>
		</g>
		<g>
			<path class="st12" d="M41.7,107.4"/>
		</g>
		<g>
			<path class="st13" d="M108.2,173.9c-16.9,0-33-6.5-45.2-18.4c-12.6-12.2-19.8-28.6-20.2-46.3C42,72.4,70.6,41.7,106.6,40.9
				s67.1,29.3,67.9,65.6l-2.5,0.1c-0.8-35-30.7-63.9-65.4-63.2C72,44.2,44.4,73.7,45.2,109.2c0.4,17,7.3,32.8,19.4,44.6
				c12.1,11.7,28.1,18,44.9,17.7c18.5-0.4,37.9-9.7,48.9-24.9l3.2-0.1c-11.4,15.8-32.7,27.1-52,27.5
				C109.1,173.9,108.6,173.9,108.2,173.9z"/>
		</g>
		<g>
			<path class="st14" d="M108.3,180.1c-38.8,0-70.8-31.4-71.6-70.8c-0.4-19.4,6.6-37.9,19.8-52.1c13.2-14.3,31-22.4,50.1-22.8
				c39.4-0.9,73.5,32,74.3,71.8l-2.7,0.1c-0.8-38.3-33.6-70-71.6-69.2C88.4,37.5,71.2,45.3,58.5,59S39,90.5,39.3,109.2
				c0.8,38.4,32.4,68.9,70.4,68.1c20.2-0.4,41.5-10.5,53.5-27.1l3.5-0.3c-12.5,17.3-35.9,29.6-56.9,30.1
				C109.4,180.1,108.9,180.1,108.3,180.1z"/>
		</g>
		<g>
			<path class="st15" d="M107.1,187.3c-4.3,0-8.5-0.3-12.8-1c-20.8-3.4-38.9-14.7-50.8-32.1l3.5-0.3c11.5,16.6,27.8,26.2,47.8,29.5
				c19.8,3.2,40.1-1.5,57-13.1c16.7-11.5,27.8-29,31.4-49.4c3.5-20.2-1-40.6-12.6-57.5c-11.5-16.8-28.9-28-49-31.7
				c-20-3.7-37.5-0.2-54.7,10.6l-4-0.9c17.4-12,38.5-16.5,59.3-12.7s38.9,15.5,50.9,33s16.7,38.7,13,59.7
				c-3.7,21.1-15.2,39.3-32.6,51.3C139.6,182.3,123.5,187.3,107.1,187.3z"/>
		</g>
		<g>
			<path class="st16" d="M30.2,103.9"/>
		</g>
		<g>
			<path class="st17" d="M182.3,106.2c-0.4-19.7-8.6-38.3-23.1-52.3s-33.2-21.5-52.7-21.1c-23.8,0.5-46,13.1-59.2,33.7l-2.4-1.6
				c13.8-21.4,36.8-34.5,61.6-35c20.3-0.4,39.7,7.3,54.8,21.9s23.6,33.8,24,54.3L182.3,106.2z"/>
		</g>
		<g>
			<path class="st17" d="M167.4,155.9l-2.4-1.7c12.9-15.3,18.8-34.1,17.2-52.8C180.6,82.1,171,64.3,154.6,50l1.9-2.2
				c16.7,14.6,26.9,33.5,28.5,53.3C186.8,120.6,180.8,140,167.4,155.9z"/>
		</g>
		<g>
			<path class="st18" d="M33.6,109.4"/>
		</g>
		<g>
			<path class="st17" d="M108.1,184.4c-24.7,0-47.8-12.1-62.1-32.5h3.7c14.1,20.1,35.7,30,60,29.5c21.5-0.5,45.3-13.1,58-30.7
				l2.3,1.7c-13.2,18.3-38,31.4-60.3,31.9C109.2,184.4,108.7,184.4,108.1,184.4z"/>
		</g>
		<g>
			<path class="st6" d="M108.3,171.6c-34.1,0-62.3-27.6-63-62.2c-0.8-35.5,26.8-65.1,61.5-65.8c16.8-0.4,33,6.1,45.5,18.1
				s19.5,28,19.9,45l-4.9,0.1c-0.3-15.7-6.9-30.4-18.4-41.6c-11.5-11.1-26.4-17.1-41.9-16.7c-31.9,0.7-57.4,28-56.6,60.8
				c0.6,32.3,27.2,58.1,59.2,57.4l0.1,4.9C109.2,171.6,108.8,171.6,108.3,171.6z"/>
		</g>
	</g>
	<g>
		<polygon class="st13" points="34.2,166.9 33.7,166.2 67.5,140.7 68.1,141.4 		"/>
	</g>
	<g>
		<polygon class="st19" points="138.4,200.6 124.8,158.6 125.5,158.3 139.3,200.3 		"/>
	</g>
	<g>
		<rect x="161.7" y="99.4" transform="matrix(0.9922 -0.125 0.125 0.9922 -11.0695 23.303)" class="st9" width="37" height="0.9"/>
	</g>
	<g>
		
			<rect x="148.7" y="65.8" transform="matrix(0.8101 -0.5863 0.5863 0.8101 -7.1883 110.3389)" class="st13" width="36.1" height="0.9"/>
	</g>
	<g>
		
			<rect x="84.7" y="19.7" transform="matrix(0.9489 -0.3155 0.3155 0.9489 -7.9074 28.8625)" class="st19" width="0.9" height="38.3"/>
	</g>
	<g>
		<g>
			<path class="st20" d="M58.1,121.8L0.6,135.9c1.3,5,2.9,10,4.8,14.7L59.9,128L58.1,121.8z"/>
		</g>
		<g>
			<path class="st21" d="M161.4,114.2l-1.4,6.3l56.7,15c1.2-4.9,2.1-10,2.6-15.1L161.4,114.2z"/>
		</g>
		<g>
			<path class="st22" d="M65.5,77.4L17,45.7c-2.2,3.2-4.3,6.6-6.2,10.1l51.9,26L65.5,77.4z"/>
		</g>
	</g>
</g>
</svg>
