<?xml version="1.0" encoding="utf-8"?>
<!-- Generator: Adobe Illustrator 21.1.0, SVG Export Plug-In . SVG Version: 6.00 Build 0)  -->
<svg version="1.1" id="Слой_1" xmlns="http://www.w3.org/2000/svg" xmlns:xlink="http://www.w3.org/1999/xlink" x="0px" y="0px"
	 width="16.5px" height="16.5px" viewBox="0 0 16.5 16.5" style="enable-background:new 0 0 16.5 16.5;" xml:space="preserve">
<style type="text/css">
	.st0{fill:#FFFFFF;}
</style>
<g>
	<polygon class="st0" points="8.2,0 0.1,5.1 16.4,5.1 	"/>
	<path class="st0" d="M8.7,10C8.6,10,8.6,10,8.7,10c-0.1,0-0.1,0-0.1,0c-0.1,0-0.1,0.1-0.2,0.1c-0.1,0-0.1,0-0.2,0
		c-0.1,0-0.1,0-0.2,0C8,10.1,7.9,10,7.9,10c-0.1,0-0.1,0-0.1,0c-0.1,0-0.1,0-0.1,0L0,5.1c0,0.1,0,0.2,0,0.2v7.8
		c0,0.8,0.6,1.5,1.5,1.5H15c0.8,0,1.5-0.6,1.5-1.5V5.4c0-0.1,0-0.2,0-0.2L8.7,10z"/>
</g>
</svg>
