<?xml version="1.0" encoding="utf-8"?>
<!-- Generator: Adobe Illustrator 21.1.0, SVG Export Plug-In . SVG Version: 6.00 Build 0)  -->
<svg version="1.1" id="Слой_1" xmlns="http://www.w3.org/2000/svg" xmlns:xlink="http://www.w3.org/1999/xlink" x="0px" y="0px"
	 width="16.7px" height="16.7px" viewBox="0 0 16.7 16.7" style="enable-background:new 0 0 16.7 16.7;" xml:space="preserve">
<style type="text/css">
	.st0{fill:#FFFFFF;}
</style>
<path class="st0" d="M8.3,0C3.7,0,0,3.7,0,8.3c0,4.6,3.7,8.3,8.3,8.3c4.6,0,8.3-3.7,8.3-8.3C16.7,3.7,12.9,0,8.3,0z M8.2,15.1
	c-0.8,0-1.6-0.1-2.4-0.4c0.3-0.2,0.6-0.9,0.7-1c0.1-0.2-0.2-0.8-0.2-0.9c0-0.1-0.7-0.9-0.9-1c-0.2-0.2,0-0.8,0-1.2
	c0-0.4-0.9-0.6-1.3-0.9c-0.3-0.2-0.5,0.6-0.9,0.5C2.9,9.9,3,9.3,2.9,8.9C2.9,8.5,2,8.4,1.5,8.4c0-3,2-5.6,4.7-6.5L6.1,1.9
	c-0.2,0.3-0.6,0-0.5,1c0.1,1-0.1,1.5,0.7,1.6c0.8,0.2,1-0.1,1.5,0c0.5,0.1,0.5,1.3,0.6,1.3c0,0,0.7,1.8,2.6,2.3c0.4,0.1-0.4,1-1,1.2
	c-0.6,0.3-1.2,0.3-1.2,0.9c-0.1,0.6,0.8,0.2,1,0.3c0.2,0.1,1.2,0.5,1.6-0.1c0.4-0.6,2.1-0.4,1.9-1c-0.3-1.4,2-2,1.2-3
	c-0.2-0.2-0.1-0.9-0.2-1.6c0.5,1,0.8,2,0.8,3.1C15.1,12.1,12,15.1,8.2,15.1z"/>
</svg>
