<?xml version="1.0" encoding="utf-8"?>
<!-- Generator: Adobe Illustrator 21.1.0, SVG Export Plug-In . SVG Version: 6.00 Build 0)  -->
<svg version="1.1" id="Слой_1" xmlns="http://www.w3.org/2000/svg" xmlns:xlink="http://www.w3.org/1999/xlink" x="0px" y="0px"
	 width="14.3px" height="15.8px" viewBox="0 0 14.3 15.8" style="enable-background:new 0 0 14.3 15.8;" xml:space="preserve">
<style type="text/css">
	.st0{fill:#FFFFFF;}
</style>
<g>
	<path class="st0" d="M11.5,0H1.9C0.9,0,0,0.9,0,1.9v11.9c0,1,0.9,1.9,1.9,1.9h9.6c0.5,0,0.9-0.4,0.9-0.9v-0.9v-13
		C12.4,0.4,12,0,11.5,0z M10.8,11.2c-0.4,0.6-0.7,1.2-2.3,1.2c-1.6,0-3.3-1.3-4.5-2.6C2.8,8.6,1.7,7.1,1.7,5.6
		c0.1-1.6,0.6-1.9,1.2-2.3c0,0,0.3-0.1,0.6,0.1C3.8,3.7,5,5,5,5s0.4,0.3,0.1,0.8c-0.2,0.3-0.8,0.9-0.9,1l0.2,0.4
		C4.8,7.5,5.3,8.3,6.1,9c0.5,0.5,1.4,0.9,1.4,0.9c0.1-0.1,0.6-0.6,0.9-0.8c0.4-0.3,0.8,0.1,0.8,0.1s1.2,1.2,1.5,1.4
		C10.9,10.9,10.8,11.2,10.8,11.2z"/>
	<path class="st0" d="M13.3,0.1h-0.2c0.1,0.2,0.2,0.6,0.2,0.9v13.9c0,0.3-0.1,0.6-0.2,0.9h0.2c0.5,0,0.9-0.4,0.9-0.9V1.9V1
		C14.3,0.5,13.9,0.1,13.3,0.1z"/>
</g>
</svg>
